<svg width="364" height="107" viewBox="0 0 364 107" fill="none" xmlns="http://www.w3.org/2000/svg">
<g filter="url(#filter0_f_226_59)">
<path d="M305.484 32.1816C292.615 31.6506 278.06 32.3727 268.587 33.2036C268.037 33.2519 267.552 32.845 267.504 32.2948C267.455 31.7447 267.862 31.2596 268.412 31.2113C277.94 30.3756 292.585 29.6477 305.566 30.1833C312.053 30.451 318.162 31.0354 323.022 32.0928C325.451 32.6214 327.601 33.275 329.343 34.0842C331.07 34.887 332.486 35.8846 333.332 37.1528C333.404 37.2614 333.455 37.3833 333.48 37.5113C333.688 38.5497 333.7 41.0442 332.394 43.6547C332.147 44.1487 331.547 44.3489 331.053 44.1019C330.559 43.8549 330.358 43.2542 330.605 42.7603C331.607 40.7578 331.646 38.8813 331.549 38.0947C330.971 37.3228 329.967 36.5798 328.5 35.8979C326.94 35.1732 324.945 34.5581 322.597 34.0471C317.9 33.0253 311.922 32.4473 305.484 32.1816Z" fill="#FF00C7"/>
<path fill-rule="evenodd" clip-rule="evenodd" d="M274.004 42.6148C274.055 42.0649 274.543 41.6606 275.092 41.7118C292.469 43.3282 302.43 49.0744 307.746 55.7866C313.053 62.4867 313.618 70.0072 312.474 74.9336C312.374 75.3651 312.002 75.6793 311.559 75.7057C294.474 76.7257 283.728 70.3276 275.535 63.278C273.496 61.5233 271.615 59.7288 269.842 58.0082C269.501 57.6777 269.165 57.3504 268.832 57.0268L268.827 57.022C267.424 55.6557 266.088 54.3551 264.772 53.1581C262.142 50.7655 259.687 48.8779 257.139 47.8086C260.944 58.9649 261.32 70.2674 260.997 74.7787C260.958 75.3296 260.479 75.7443 259.929 75.7049C259.378 75.6656 258.963 75.1871 259.002 74.6362C259.089 73.4222 259.123 71.6744 259.043 69.5472C258.843 69.6764 258.597 69.7352 258.344 69.6952C253.445 68.9217 246.085 66.1176 238.517 62.615C232.039 59.6168 225.331 56.0705 219.752 52.7506C219.995 53.5144 220.215 54.3434 220.412 55.2023C220.955 57.5671 221.367 60.3304 221.62 62.9877C221.873 65.6423 221.97 68.2242 221.874 70.2245C221.826 71.2195 221.728 72.1095 221.563 72.8054C221.481 73.1518 221.373 73.4889 221.224 73.779C221.084 74.0516 220.848 74.4013 220.447 74.6019C220.083 74.7839 219.705 74.7705 219.449 74.7353C219.172 74.6972 218.884 74.6109 218.605 74.506C218.044 74.2953 217.377 73.9545 216.653 73.5358C215.195 72.6939 213.37 71.4583 211.44 70.0689C207.575 67.2853 203.207 63.8207 200.364 61.4794C199.938 61.1283 199.877 60.4981 200.228 60.0718C200.579 59.6454 201.209 59.5844 201.636 59.9355C204.459 62.2609 208.791 65.6963 212.609 68.446C214.522 69.8233 216.283 71.0127 217.653 71.8041C218.342 72.2021 218.899 72.48 219.308 72.6339C219.387 72.6634 219.455 72.6863 219.513 72.704C219.546 72.6125 219.581 72.4938 219.617 72.3439C219.741 71.8211 219.83 71.0705 219.876 70.1279C219.967 68.2532 219.877 65.7726 219.629 63.1773C219.382 60.5845 218.982 57.9104 218.463 55.6501C217.931 53.3374 217.31 51.6213 216.7 50.8075C216.411 50.4222 216.438 49.8857 216.763 49.531C217.089 49.1763 217.621 49.1042 218.03 49.3595C223.991 53.0853 231.829 57.3158 239.357 60.7999C246.914 64.2974 254.055 66.9932 258.656 67.7197C258.764 67.7367 258.865 67.7705 258.957 67.8178C258.602 62.0453 257.447 54.1606 254.565 46.5621C254.433 46.214 254.505 45.8214 254.752 45.5431C255 45.2649 255.381 45.147 255.742 45.2373C259.498 46.1763 262.81 48.6695 266.118 51.6787C267.461 52.9004 268.827 54.2303 270.232 55.5981L270.233 55.5989C270.564 55.9216 270.898 56.2468 271.234 56.5728C273.002 58.2877 274.848 60.0479 276.84 61.762C284.648 68.4809 294.707 74.4988 310.677 73.7499C311.484 69.3371 310.8 62.8635 306.178 57.0284C301.303 50.8739 291.93 45.2867 274.907 43.7032C274.357 43.652 273.953 43.1648 274.004 42.6148ZM219.747 72.7568C219.754 72.7566 219.758 72.7568 219.758 72.757C219.758 72.7572 219.755 72.7573 219.747 72.7568Z" fill="#FF00C7"/>
<path d="M58.1006 32.3891C70.9696 31.8581 85.5243 32.5802 94.997 33.4111C95.5472 33.4594 96.0323 33.0525 96.0806 32.5023C96.1288 31.9522 95.722 31.467 95.1718 31.4188C85.6445 30.583 70.9992 29.8551 58.0182 30.3908C51.5317 30.6584 45.4224 31.2429 40.5624 32.3003C38.1331 32.8289 35.9828 33.4825 34.2415 34.2917C32.5139 35.0945 31.0978 36.0921 30.2524 37.3602C30.1799 37.4689 30.1295 37.5907 30.1038 37.7188C29.8962 38.7572 29.8848 41.2517 31.19 43.8622C31.437 44.3561 32.0377 44.5564 32.5316 44.3094C33.0256 44.0624 33.2258 43.4617 32.9788 42.9677C31.9776 40.9652 31.9383 39.0888 32.035 38.3022C32.6134 37.5303 33.617 36.7873 35.0843 36.1054C36.6438 35.3807 38.6389 34.7656 40.9876 34.2546C45.684 33.2328 51.6621 32.6548 58.1006 32.3891Z" fill="#FF00C7"/>
<path fill-rule="evenodd" clip-rule="evenodd" d="M88.4918 41.9192C89.0417 41.8681 89.529 42.2724 89.5801 42.8223C89.6313 43.3722 89.2269 43.8595 88.677 43.9106C71.654 45.4942 62.2808 51.0813 57.4058 57.2359C52.7838 63.071 52.1004 69.5445 52.9071 73.9574C68.8774 74.7063 78.9361 68.6884 86.7447 61.9694C88.7367 60.2554 90.5824 58.4952 92.35 56.7802C92.6838 56.4564 93.0152 56.1337 93.3445 55.8131L93.351 55.8068C94.7563 54.4386 96.1229 53.1082 97.4662 51.8862C100.774 48.8769 104.086 46.3838 107.842 45.4448C108.203 45.3545 108.585 45.4723 108.832 45.7506C109.079 46.0289 109.151 46.4215 109.019 46.7696C106.137 54.3681 104.982 62.2528 104.627 68.0253C104.719 67.9779 104.821 67.9442 104.928 67.9272C109.529 67.2007 116.67 64.5048 124.227 61.0074C131.755 57.5232 139.593 53.2928 145.554 49.5669C145.963 49.3117 146.495 49.3838 146.821 49.7385C147.147 50.0932 147.173 50.6297 146.884 51.0149C146.274 51.8288 145.653 53.5449 145.122 55.8576C144.602 58.1178 144.202 60.792 143.955 63.3848C143.708 65.9801 143.618 68.4607 143.708 70.3354C143.754 71.2779 143.844 72.0285 143.968 72.5513C144.003 72.7013 144.039 72.82 144.071 72.9115C144.13 72.8938 144.198 72.8708 144.276 72.8414C144.685 72.6875 145.242 72.4096 145.931 72.0116C147.301 71.2201 149.063 70.0308 150.975 68.6535C154.793 65.9038 159.125 62.4684 161.949 60.143C162.375 59.7919 163.005 59.8529 163.356 60.2792C163.707 60.7056 163.646 61.3358 163.22 61.6869C160.377 64.0282 156.009 67.4927 152.144 70.2764C150.215 71.6658 148.389 72.9014 146.932 73.7433C146.207 74.1619 145.54 74.5028 144.98 74.7135C144.7 74.8184 144.413 74.9046 144.135 74.9427C143.879 74.9779 143.501 74.9914 143.137 74.8094C142.736 74.6088 142.5 74.2591 142.36 73.9864C142.211 73.6964 142.104 73.3593 142.022 73.0129C141.856 72.317 141.759 71.4269 141.711 70.432C141.614 68.4317 141.711 65.8498 141.964 63.1951C142.217 60.5379 142.629 57.7746 143.172 55.4098C143.37 54.5509 143.589 53.7218 143.832 52.9581C138.253 56.2779 131.545 59.8243 125.067 62.8225C117.499 66.3251 110.139 69.1292 105.24 69.9027C104.987 69.9427 104.741 69.8838 104.541 69.7547C104.462 71.8819 104.495 73.6297 104.582 74.8437C104.621 75.3946 104.207 75.8731 103.656 75.9124C103.105 75.9517 102.626 75.5371 102.587 74.9862C102.265 70.4748 102.64 59.1724 106.446 48.0161C103.898 49.0853 101.442 50.973 98.812 53.3656C97.4962 54.5626 96.1603 55.8632 94.7569 57.2295C94.4228 57.5546 94.085 57.8836 93.7427 58.2157C91.9692 59.9363 90.0884 61.7307 88.0492 63.4855C79.8563 70.5351 69.1106 76.9332 52.0248 75.9132C51.5826 75.8868 51.2105 75.5726 51.1103 75.1411C49.9667 70.2147 50.5308 62.6942 55.838 55.994C61.1547 49.2819 71.1148 43.5357 88.4918 41.9192ZM143.837 72.9642C143.83 72.964 143.826 72.9643 143.826 72.9645C143.826 72.9647 143.83 72.9648 143.837 72.9642Z" fill="#FF00C7"/>
<path d="M183 68.2075C183 67.6552 182.552 67.2075 182 67.2075C181.448 67.2075 181 67.6552 181 68.2075V74.2075C181 74.7598 181.448 75.2075 182 75.2075C182.552 75.2075 183 74.7598 183 74.2075V68.2075Z" fill="#FF00C7"/>
</g>
<g filter="url(#filter1_f_226_59)">
<path d="M305.484 32.1816C292.615 31.6506 278.06 32.3727 268.587 33.2036C268.037 33.2519 267.552 32.845 267.504 32.2948C267.455 31.7447 267.862 31.2596 268.412 31.2113C277.94 30.3756 292.585 29.6477 305.566 30.1833C312.053 30.451 318.162 31.0354 323.022 32.0928C325.451 32.6214 327.601 33.275 329.343 34.0842C331.07 34.887 332.486 35.8846 333.332 37.1528C333.404 37.2614 333.455 37.3833 333.48 37.5113C333.688 38.5497 333.7 41.0442 332.394 43.6547C332.147 44.1487 331.547 44.3489 331.053 44.1019C330.559 43.8549 330.358 43.2542 330.605 42.7603C331.607 40.7578 331.646 38.8813 331.549 38.0947C330.971 37.3228 329.967 36.5798 328.5 35.8979C326.94 35.1732 324.945 34.5581 322.597 34.0471C317.9 33.0253 311.922 32.4473 305.484 32.1816Z" fill="#FF00C7"/>
<path fill-rule="evenodd" clip-rule="evenodd" d="M274.004 42.6148C274.055 42.0649 274.543 41.6606 275.092 41.7118C292.469 43.3282 302.43 49.0744 307.746 55.7866C313.053 62.4867 313.618 70.0072 312.474 74.9336C312.374 75.3651 312.002 75.6793 311.559 75.7057C294.474 76.7257 283.728 70.3276 275.535 63.278C273.496 61.5233 271.615 59.7288 269.842 58.0082C269.501 57.6777 269.165 57.3504 268.832 57.0268L268.827 57.022C267.424 55.6557 266.088 54.3551 264.772 53.1581C262.142 50.7655 259.687 48.8779 257.139 47.8086C260.944 58.9649 261.32 70.2674 260.997 74.7787C260.958 75.3296 260.479 75.7443 259.929 75.7049C259.378 75.6656 258.963 75.1871 259.002 74.6362C259.089 73.4222 259.123 71.6744 259.043 69.5472C258.843 69.6764 258.597 69.7352 258.344 69.6952C253.445 68.9217 246.085 66.1176 238.517 62.615C232.039 59.6168 225.331 56.0705 219.752 52.7506C219.995 53.5144 220.215 54.3434 220.412 55.2023C220.955 57.5671 221.367 60.3304 221.62 62.9877C221.873 65.6423 221.97 68.2242 221.874 70.2245C221.826 71.2195 221.728 72.1095 221.563 72.8054C221.481 73.1518 221.373 73.4889 221.224 73.779C221.084 74.0516 220.848 74.4013 220.447 74.6019C220.083 74.7839 219.705 74.7705 219.449 74.7353C219.172 74.6972 218.884 74.6109 218.605 74.506C218.044 74.2953 217.377 73.9545 216.653 73.5358C215.195 72.6939 213.37 71.4583 211.44 70.0689C207.575 67.2853 203.207 63.8207 200.364 61.4794C199.938 61.1283 199.877 60.4981 200.228 60.0718C200.579 59.6454 201.209 59.5844 201.636 59.9355C204.459 62.2609 208.791 65.6963 212.609 68.446C214.522 69.8233 216.283 71.0127 217.653 71.8041C218.342 72.2021 218.899 72.48 219.308 72.6339C219.387 72.6634 219.455 72.6863 219.513 72.704C219.546 72.6125 219.581 72.4938 219.617 72.3439C219.741 71.8211 219.83 71.0705 219.876 70.1279C219.967 68.2532 219.877 65.7726 219.629 63.1773C219.382 60.5845 218.982 57.9104 218.463 55.6501C217.931 53.3374 217.31 51.6213 216.7 50.8075C216.411 50.4222 216.438 49.8857 216.763 49.531C217.089 49.1763 217.621 49.1042 218.03 49.3595C223.991 53.0853 231.829 57.3158 239.357 60.7999C246.914 64.2974 254.055 66.9932 258.656 67.7197C258.764 67.7367 258.865 67.7705 258.957 67.8178C258.602 62.0453 257.447 54.1606 254.565 46.5621C254.433 46.214 254.505 45.8214 254.752 45.5431C255 45.2649 255.381 45.147 255.742 45.2373C259.498 46.1763 262.81 48.6695 266.118 51.6787C267.461 52.9004 268.827 54.2303 270.232 55.5981L270.233 55.5989C270.564 55.9216 270.898 56.2468 271.234 56.5728C273.002 58.2877 274.848 60.0479 276.84 61.762C284.648 68.4809 294.707 74.4988 310.677 73.7499C311.484 69.3371 310.8 62.8635 306.178 57.0284C301.303 50.8739 291.93 45.2867 274.907 43.7032C274.357 43.652 273.953 43.1648 274.004 42.6148ZM219.747 72.7568C219.754 72.7566 219.758 72.7568 219.758 72.757C219.758 72.7572 219.755 72.7573 219.747 72.7568Z" fill="#FF00C7"/>
<path d="M58.1006 32.3891C70.9696 31.8581 85.5243 32.5802 94.997 33.4111C95.5472 33.4594 96.0323 33.0525 96.0806 32.5023C96.1288 31.9522 95.722 31.467 95.1718 31.4188C85.6445 30.583 70.9992 29.8551 58.0182 30.3908C51.5317 30.6584 45.4224 31.2429 40.5624 32.3003C38.1331 32.8289 35.9828 33.4825 34.2415 34.2917C32.5139 35.0945 31.0978 36.0921 30.2524 37.3602C30.1799 37.4689 30.1295 37.5907 30.1038 37.7188C29.8962 38.7572 29.8848 41.2517 31.19 43.8622C31.437 44.3561 32.0377 44.5564 32.5316 44.3094C33.0256 44.0624 33.2258 43.4617 32.9788 42.9677C31.9776 40.9652 31.9383 39.0888 32.035 38.3022C32.6134 37.5303 33.617 36.7873 35.0843 36.1054C36.6438 35.3807 38.6389 34.7656 40.9876 34.2546C45.684 33.2328 51.6621 32.6548 58.1006 32.3891Z" fill="#FF00C7"/>
<path fill-rule="evenodd" clip-rule="evenodd" d="M88.4918 41.9192C89.0417 41.8681 89.529 42.2724 89.5801 42.8223C89.6313 43.3722 89.2269 43.8595 88.677 43.9106C71.654 45.4942 62.2808 51.0813 57.4058 57.2359C52.7838 63.071 52.1004 69.5445 52.9071 73.9574C68.8774 74.7063 78.9361 68.6884 86.7447 61.9694C88.7367 60.2554 90.5824 58.4952 92.35 56.7802C92.6838 56.4564 93.0152 56.1337 93.3445 55.8131L93.351 55.8068C94.7563 54.4386 96.1229 53.1082 97.4662 51.8862C100.774 48.8769 104.086 46.3838 107.842 45.4448C108.203 45.3545 108.585 45.4723 108.832 45.7506C109.079 46.0289 109.151 46.4215 109.019 46.7696C106.137 54.3681 104.982 62.2528 104.627 68.0253C104.719 67.9779 104.821 67.9442 104.928 67.9272C109.529 67.2007 116.67 64.5048 124.227 61.0074C131.755 57.5232 139.593 53.2928 145.554 49.5669C145.963 49.3117 146.495 49.3838 146.821 49.7385C147.147 50.0932 147.173 50.6297 146.884 51.0149C146.274 51.8288 145.653 53.5449 145.122 55.8576C144.602 58.1178 144.202 60.792 143.955 63.3848C143.708 65.9801 143.618 68.4607 143.708 70.3354C143.754 71.2779 143.844 72.0285 143.968 72.5513C144.003 72.7013 144.039 72.82 144.071 72.9115C144.13 72.8938 144.198 72.8708 144.276 72.8414C144.685 72.6875 145.242 72.4096 145.931 72.0116C147.301 71.2201 149.063 70.0308 150.975 68.6535C154.793 65.9038 159.125 62.4684 161.949 60.143C162.375 59.7919 163.005 59.8529 163.356 60.2792C163.707 60.7056 163.646 61.3358 163.22 61.6869C160.377 64.0282 156.009 67.4927 152.144 70.2764C150.215 71.6658 148.389 72.9014 146.932 73.7433C146.207 74.1619 145.54 74.5028 144.98 74.7135C144.7 74.8184 144.413 74.9046 144.135 74.9427C143.879 74.9779 143.501 74.9914 143.137 74.8094C142.736 74.6088 142.5 74.2591 142.36 73.9864C142.211 73.6964 142.104 73.3593 142.022 73.0129C141.856 72.317 141.759 71.4269 141.711 70.432C141.614 68.4317 141.711 65.8498 141.964 63.1951C142.217 60.5379 142.629 57.7746 143.172 55.4098C143.37 54.5509 143.589 53.7218 143.832 52.9581C138.253 56.2779 131.545 59.8243 125.067 62.8225C117.499 66.3251 110.139 69.1292 105.24 69.9027C104.987 69.9427 104.741 69.8838 104.541 69.7547C104.462 71.8819 104.495 73.6297 104.582 74.8437C104.621 75.3946 104.207 75.8731 103.656 75.9124C103.105 75.9517 102.626 75.5371 102.587 74.9862C102.265 70.4748 102.64 59.1724 106.446 48.0161C103.898 49.0853 101.442 50.973 98.812 53.3656C97.4962 54.5626 96.1603 55.8632 94.7569 57.2295C94.4228 57.5546 94.085 57.8836 93.7427 58.2157C91.9692 59.9363 90.0884 61.7307 88.0492 63.4855C79.8563 70.5351 69.1106 76.9332 52.0248 75.9132C51.5826 75.8868 51.2105 75.5726 51.1103 75.1411C49.9667 70.2147 50.5308 62.6942 55.838 55.994C61.1547 49.2819 71.1148 43.5357 88.4918 41.9192ZM143.837 72.9642C143.83 72.964 143.826 72.9643 143.826 72.9645C143.826 72.9647 143.83 72.9648 143.837 72.9642Z" fill="#FF00C7"/>
<path d="M183 68.2075C183 67.6552 182.552 67.2075 182 67.2075C181.448 67.2075 181 67.6552 181 68.2075V74.2075C181 74.7598 181.448 75.2075 182 75.2075C182.552 75.2075 183 74.7598 183 74.2075V68.2075Z" fill="#FF00C7"/>
</g>
<g filter="url(#filter2_f_226_59)">
<path d="M305.484 32.1816C292.615 31.6506 278.06 32.3727 268.587 33.2036C268.037 33.2519 267.552 32.845 267.504 32.2948C267.455 31.7447 267.862 31.2596 268.412 31.2113C277.94 30.3756 292.585 29.6477 305.566 30.1833C312.053 30.451 318.162 31.0354 323.022 32.0928C325.451 32.6214 327.601 33.275 329.343 34.0842C331.07 34.887 332.486 35.8846 333.332 37.1528C333.404 37.2614 333.455 37.3833 333.48 37.5113C333.688 38.5497 333.7 41.0442 332.394 43.6547C332.147 44.1487 331.547 44.3489 331.053 44.1019C330.559 43.8549 330.358 43.2542 330.605 42.7603C331.607 40.7578 331.646 38.8813 331.549 38.0947C330.971 37.3228 329.967 36.5798 328.5 35.8979C326.94 35.1732 324.945 34.5581 322.597 34.0471C317.9 33.0253 311.922 32.4473 305.484 32.1816Z" fill="#FF00C7"/>
<path fill-rule="evenodd" clip-rule="evenodd" d="M274.004 42.6148C274.055 42.0649 274.543 41.6606 275.092 41.7118C292.469 43.3282 302.43 49.0744 307.746 55.7866C313.053 62.4867 313.618 70.0072 312.474 74.9336C312.374 75.3651 312.002 75.6793 311.559 75.7057C294.474 76.7257 283.728 70.3276 275.535 63.278C273.496 61.5233 271.615 59.7288 269.842 58.0082C269.501 57.6777 269.165 57.3504 268.832 57.0268L268.827 57.022C267.424 55.6557 266.088 54.3551 264.772 53.1581C262.142 50.7655 259.687 48.8779 257.139 47.8086C260.944 58.9649 261.32 70.2674 260.997 74.7787C260.958 75.3296 260.479 75.7443 259.929 75.7049C259.378 75.6656 258.963 75.1871 259.002 74.6362C259.089 73.4222 259.123 71.6744 259.043 69.5472C258.843 69.6764 258.597 69.7352 258.344 69.6952C253.445 68.9217 246.085 66.1176 238.517 62.615C232.039 59.6168 225.331 56.0705 219.752 52.7506C219.995 53.5144 220.215 54.3434 220.412 55.2023C220.955 57.5671 221.367 60.3304 221.62 62.9877C221.873 65.6423 221.97 68.2242 221.874 70.2245C221.826 71.2195 221.728 72.1095 221.563 72.8054C221.481 73.1518 221.373 73.4889 221.224 73.779C221.084 74.0516 220.848 74.4013 220.447 74.6019C220.083 74.7839 219.705 74.7705 219.449 74.7353C219.172 74.6972 218.884 74.6109 218.605 74.506C218.044 74.2953 217.377 73.9545 216.653 73.5358C215.195 72.6939 213.37 71.4583 211.44 70.0689C207.575 67.2853 203.207 63.8207 200.364 61.4794C199.938 61.1283 199.877 60.4981 200.228 60.0718C200.579 59.6454 201.209 59.5844 201.636 59.9355C204.459 62.2609 208.791 65.6963 212.609 68.446C214.522 69.8233 216.283 71.0127 217.653 71.8041C218.342 72.2021 218.899 72.48 219.308 72.6339C219.387 72.6634 219.455 72.6863 219.513 72.704C219.546 72.6125 219.581 72.4938 219.617 72.3439C219.741 71.8211 219.83 71.0705 219.876 70.1279C219.967 68.2532 219.877 65.7726 219.629 63.1773C219.382 60.5845 218.982 57.9104 218.463 55.6501C217.931 53.3374 217.31 51.6213 216.7 50.8075C216.411 50.4222 216.438 49.8857 216.763 49.531C217.089 49.1763 217.621 49.1042 218.03 49.3595C223.991 53.0853 231.829 57.3158 239.357 60.7999C246.914 64.2974 254.055 66.9932 258.656 67.7197C258.764 67.7367 258.865 67.7705 258.957 67.8178C258.602 62.0453 257.447 54.1606 254.565 46.5621C254.433 46.214 254.505 45.8214 254.752 45.5431C255 45.2649 255.381 45.147 255.742 45.2373C259.498 46.1763 262.81 48.6695 266.118 51.6787C267.461 52.9004 268.827 54.2303 270.232 55.5981L270.233 55.5989C270.564 55.9216 270.898 56.2468 271.234 56.5728C273.002 58.2877 274.848 60.0479 276.84 61.762C284.648 68.4809 294.707 74.4988 310.677 73.7499C311.484 69.3371 310.8 62.8635 306.178 57.0284C301.303 50.8739 291.93 45.2867 274.907 43.7032C274.357 43.652 273.953 43.1648 274.004 42.6148ZM219.747 72.7568C219.754 72.7566 219.758 72.7568 219.758 72.757C219.758 72.7572 219.755 72.7573 219.747 72.7568Z" fill="#FF00C7"/>
<path d="M58.1006 32.3891C70.9696 31.8581 85.5243 32.5802 94.997 33.4111C95.5472 33.4594 96.0323 33.0525 96.0806 32.5023C96.1288 31.9522 95.722 31.467 95.1718 31.4188C85.6445 30.583 70.9992 29.8551 58.0182 30.3908C51.5317 30.6584 45.4224 31.2429 40.5624 32.3003C38.1331 32.8289 35.9828 33.4825 34.2415 34.2917C32.5139 35.0945 31.0978 36.0921 30.2524 37.3602C30.1799 37.4689 30.1295 37.5907 30.1038 37.7188C29.8962 38.7572 29.8848 41.2517 31.19 43.8622C31.437 44.3561 32.0377 44.5564 32.5316 44.3094C33.0256 44.0624 33.2258 43.4617 32.9788 42.9677C31.9776 40.9652 31.9383 39.0888 32.035 38.3022C32.6134 37.5303 33.617 36.7873 35.0843 36.1054C36.6438 35.3807 38.6389 34.7656 40.9876 34.2546C45.684 33.2328 51.6621 32.6548 58.1006 32.3891Z" fill="#FF00C7"/>
<path fill-rule="evenodd" clip-rule="evenodd" d="M88.4918 41.9192C89.0417 41.8681 89.529 42.2724 89.5801 42.8223C89.6313 43.3722 89.2269 43.8595 88.677 43.9106C71.654 45.4942 62.2808 51.0813 57.4058 57.2359C52.7838 63.071 52.1004 69.5445 52.9071 73.9574C68.8774 74.7063 78.9361 68.6884 86.7447 61.9694C88.7367 60.2554 90.5824 58.4952 92.35 56.7802C92.6838 56.4564 93.0152 56.1337 93.3445 55.8131L93.351 55.8068C94.7563 54.4386 96.1229 53.1082 97.4662 51.8862C100.774 48.8769 104.086 46.3838 107.842 45.4448C108.203 45.3545 108.585 45.4723 108.832 45.7506C109.079 46.0289 109.151 46.4215 109.019 46.7696C106.137 54.3681 104.982 62.2528 104.627 68.0253C104.719 67.9779 104.821 67.9442 104.928 67.9272C109.529 67.2007 116.67 64.5048 124.227 61.0074C131.755 57.5232 139.593 53.2928 145.554 49.5669C145.963 49.3117 146.495 49.3838 146.821 49.7385C147.147 50.0932 147.173 50.6297 146.884 51.0149C146.274 51.8288 145.653 53.5449 145.122 55.8576C144.602 58.1178 144.202 60.792 143.955 63.3848C143.708 65.9801 143.618 68.4607 143.708 70.3354C143.754 71.2779 143.844 72.0285 143.968 72.5513C144.003 72.7013 144.039 72.82 144.071 72.9115C144.13 72.8938 144.198 72.8708 144.276 72.8414C144.685 72.6875 145.242 72.4096 145.931 72.0116C147.301 71.2201 149.063 70.0308 150.975 68.6535C154.793 65.9038 159.125 62.4684 161.949 60.143C162.375 59.7919 163.005 59.8529 163.356 60.2792C163.707 60.7056 163.646 61.3358 163.22 61.6869C160.377 64.0282 156.009 67.4927 152.144 70.2764C150.215 71.6658 148.389 72.9014 146.932 73.7433C146.207 74.1619 145.54 74.5028 144.98 74.7135C144.7 74.8184 144.413 74.9046 144.135 74.9427C143.879 74.9779 143.501 74.9914 143.137 74.8094C142.736 74.6088 142.5 74.2591 142.36 73.9864C142.211 73.6964 142.104 73.3593 142.022 73.0129C141.856 72.317 141.759 71.4269 141.711 70.432C141.614 68.4317 141.711 65.8498 141.964 63.1951C142.217 60.5379 142.629 57.7746 143.172 55.4098C143.37 54.5509 143.589 53.7218 143.832 52.9581C138.253 56.2779 131.545 59.8243 125.067 62.8225C117.499 66.3251 110.139 69.1292 105.24 69.9027C104.987 69.9427 104.741 69.8838 104.541 69.7547C104.462 71.8819 104.495 73.6297 104.582 74.8437C104.621 75.3946 104.207 75.8731 103.656 75.9124C103.105 75.9517 102.626 75.5371 102.587 74.9862C102.265 70.4748 102.64 59.1724 106.446 48.0161C103.898 49.0853 101.442 50.973 98.812 53.3656C97.4962 54.5626 96.1603 55.8632 94.7569 57.2295C94.4228 57.5546 94.085 57.8836 93.7427 58.2157C91.9692 59.9363 90.0884 61.7307 88.0492 63.4855C79.8563 70.5351 69.1106 76.9332 52.0248 75.9132C51.5826 75.8868 51.2105 75.5726 51.1103 75.1411C49.9667 70.2147 50.5308 62.6942 55.838 55.994C61.1547 49.2819 71.1148 43.5357 88.4918 41.9192ZM143.837 72.9642C143.83 72.964 143.826 72.9643 143.826 72.9645C143.826 72.9647 143.83 72.9648 143.837 72.9642Z" fill="#FF00C7"/>
<path d="M183 68.2075C183 67.6552 182.552 67.2075 182 67.2075C181.448 67.2075 181 67.6552 181 68.2075V74.2075C181 74.7598 181.448 75.2075 182 75.2075C182.552 75.2075 183 74.7598 183 74.2075V68.2075Z" fill="#FF00C7"/>
</g>
<path d="M305.484 32.1816C292.615 31.6506 278.06 32.3727 268.587 33.2036C268.037 33.2519 267.552 32.845 267.504 32.2948C267.455 31.7447 267.862 31.2596 268.412 31.2113C277.94 30.3756 292.585 29.6477 305.566 30.1833C312.053 30.451 318.162 31.0354 323.022 32.0928C325.451 32.6214 327.601 33.275 329.343 34.0842C331.07 34.887 332.486 35.8846 333.332 37.1528C333.404 37.2614 333.455 37.3833 333.48 37.5113C333.688 38.5497 333.7 41.0442 332.394 43.6547C332.147 44.1487 331.547 44.3489 331.053 44.1019C330.559 43.8549 330.358 43.2542 330.605 42.7603C331.607 40.7578 331.646 38.8813 331.549 38.0947C330.971 37.3228 329.967 36.5798 328.5 35.8979C326.94 35.1732 324.945 34.5581 322.597 34.0471C317.9 33.0253 311.922 32.4473 305.484 32.1816Z" fill="#FF27D0"/>
<path fill-rule="evenodd" clip-rule="evenodd" d="M274.004 42.6148C274.055 42.0649 274.543 41.6606 275.092 41.7118C292.469 43.3282 302.43 49.0744 307.746 55.7866C313.053 62.4867 313.618 70.0072 312.474 74.9336C312.374 75.3651 312.002 75.6793 311.559 75.7057C294.474 76.7257 283.728 70.3276 275.535 63.278C273.496 61.5233 271.615 59.7288 269.842 58.0082C269.501 57.6777 269.165 57.3504 268.832 57.0268L268.827 57.022C267.424 55.6557 266.088 54.3551 264.772 53.1581C262.142 50.7655 259.687 48.8779 257.139 47.8086C260.944 58.9649 261.32 70.2674 260.997 74.7787C260.958 75.3296 260.479 75.7443 259.929 75.7049C259.378 75.6656 258.963 75.1871 259.002 74.6362C259.089 73.4222 259.123 71.6744 259.043 69.5472C258.843 69.6764 258.597 69.7352 258.344 69.6952C253.445 68.9217 246.085 66.1176 238.517 62.615C232.039 59.6168 225.331 56.0705 219.752 52.7506C219.995 53.5144 220.215 54.3434 220.412 55.2023C220.955 57.5671 221.367 60.3304 221.62 62.9877C221.873 65.6423 221.97 68.2242 221.874 70.2245C221.826 71.2195 221.728 72.1095 221.563 72.8054C221.481 73.1518 221.373 73.4889 221.224 73.779C221.084 74.0516 220.848 74.4013 220.447 74.6019C220.083 74.7839 219.705 74.7705 219.449 74.7353C219.172 74.6972 218.884 74.6109 218.605 74.506C218.044 74.2953 217.377 73.9545 216.653 73.5358C215.195 72.6939 213.37 71.4583 211.44 70.0689C207.575 67.2853 203.207 63.8207 200.364 61.4794C199.938 61.1283 199.877 60.4981 200.228 60.0718C200.579 59.6454 201.209 59.5844 201.636 59.9355C204.459 62.2609 208.791 65.6963 212.609 68.446C214.522 69.8233 216.283 71.0127 217.653 71.8041C218.342 72.2021 218.899 72.48 219.308 72.6339C219.387 72.6634 219.455 72.6863 219.513 72.704C219.546 72.6125 219.581 72.4938 219.617 72.3439C219.741 71.8211 219.83 71.0705 219.876 70.1279C219.967 68.2532 219.877 65.7726 219.629 63.1773C219.382 60.5845 218.982 57.9104 218.463 55.6501C217.931 53.3374 217.31 51.6213 216.7 50.8075C216.411 50.4222 216.438 49.8857 216.763 49.531C217.089 49.1763 217.621 49.1042 218.03 49.3595C223.991 53.0853 231.829 57.3158 239.357 60.7999C246.914 64.2974 254.055 66.9932 258.656 67.7197C258.764 67.7367 258.865 67.7705 258.957 67.8178C258.602 62.0453 257.447 54.1606 254.565 46.5621C254.433 46.214 254.505 45.8214 254.752 45.5431C255 45.2649 255.381 45.147 255.742 45.2373C259.498 46.1763 262.81 48.6695 266.118 51.6787C267.461 52.9004 268.827 54.2303 270.232 55.5981L270.233 55.5989C270.564 55.9216 270.898 56.2468 271.234 56.5728C273.002 58.2877 274.848 60.0479 276.84 61.762C284.648 68.4809 294.707 74.4988 310.677 73.7499C311.484 69.3371 310.8 62.8635 306.178 57.0284C301.303 50.8739 291.93 45.2867 274.907 43.7032C274.357 43.652 273.953 43.1648 274.004 42.6148ZM219.747 72.7568C219.754 72.7566 219.758 72.7568 219.758 72.757C219.758 72.7572 219.755 72.7573 219.747 72.7568Z" fill="#FF27D0"/>
<path d="M58.1006 32.3891C70.9696 31.8581 85.5243 32.5802 94.997 33.4111C95.5472 33.4594 96.0323 33.0525 96.0806 32.5023C96.1288 31.9522 95.722 31.467 95.1718 31.4188C85.6445 30.583 70.9992 29.8551 58.0182 30.3908C51.5317 30.6584 45.4224 31.2429 40.5624 32.3003C38.1331 32.8289 35.9828 33.4825 34.2415 34.2917C32.5139 35.0945 31.0978 36.0921 30.2524 37.3602C30.1799 37.4689 30.1295 37.5907 30.1038 37.7188C29.8962 38.7572 29.8848 41.2517 31.19 43.8622C31.437 44.3561 32.0377 44.5564 32.5316 44.3094C33.0256 44.0624 33.2258 43.4617 32.9788 42.9677C31.9776 40.9652 31.9383 39.0888 32.035 38.3022C32.6134 37.5303 33.617 36.7873 35.0843 36.1054C36.6438 35.3807 38.6389 34.7656 40.9876 34.2546C45.684 33.2328 51.6621 32.6548 58.1006 32.3891Z" fill="#FF27D0"/>
<path fill-rule="evenodd" clip-rule="evenodd" d="M88.4918 41.9192C89.0417 41.8681 89.529 42.2724 89.5801 42.8223C89.6313 43.3722 89.2269 43.8595 88.677 43.9106C71.654 45.4942 62.2808 51.0813 57.4058 57.2359C52.7838 63.071 52.1004 69.5445 52.9071 73.9574C68.8774 74.7063 78.9361 68.6884 86.7447 61.9694C88.7367 60.2554 90.5824 58.4952 92.35 56.7802C92.6838 56.4564 93.0152 56.1337 93.3445 55.8131L93.351 55.8068C94.7563 54.4386 96.1229 53.1082 97.4662 51.8862C100.774 48.8769 104.086 46.3838 107.842 45.4448C108.203 45.3545 108.585 45.4723 108.832 45.7506C109.079 46.0289 109.151 46.4215 109.019 46.7696C106.137 54.3681 104.982 62.2528 104.627 68.0253C104.719 67.9779 104.821 67.9442 104.928 67.9272C109.529 67.2007 116.67 64.5048 124.227 61.0074C131.755 57.5232 139.593 53.2928 145.554 49.5669C145.963 49.3117 146.495 49.3838 146.821 49.7385C147.147 50.0932 147.173 50.6297 146.884 51.0149C146.274 51.8288 145.653 53.5449 145.122 55.8576C144.602 58.1178 144.202 60.792 143.955 63.3848C143.708 65.9801 143.618 68.4607 143.708 70.3354C143.754 71.2779 143.844 72.0285 143.968 72.5513C144.003 72.7013 144.039 72.82 144.071 72.9115C144.13 72.8938 144.198 72.8708 144.276 72.8414C144.685 72.6875 145.242 72.4096 145.931 72.0116C147.301 71.2201 149.063 70.0308 150.975 68.6535C154.793 65.9038 159.125 62.4684 161.949 60.143C162.375 59.7919 163.005 59.8529 163.356 60.2792C163.707 60.7056 163.646 61.3358 163.22 61.6869C160.377 64.0282 156.009 67.4927 152.144 70.2764C150.215 71.6658 148.389 72.9014 146.932 73.7433C146.207 74.1619 145.54 74.5028 144.98 74.7135C144.7 74.8184 144.413 74.9046 144.135 74.9427C143.879 74.9779 143.501 74.9914 143.137 74.8094C142.736 74.6088 142.5 74.2591 142.36 73.9864C142.211 73.6964 142.104 73.3593 142.022 73.0129C141.856 72.317 141.759 71.4269 141.711 70.432C141.614 68.4317 141.711 65.8498 141.964 63.1951C142.217 60.5379 142.629 57.7746 143.172 55.4098C143.37 54.5509 143.589 53.7218 143.832 52.9581C138.253 56.2779 131.545 59.8243 125.067 62.8225C117.499 66.3251 110.139 69.1292 105.24 69.9027C104.987 69.9427 104.741 69.8838 104.541 69.7547C104.462 71.8819 104.495 73.6297 104.582 74.8437C104.621 75.3946 104.207 75.8731 103.656 75.9124C103.105 75.9517 102.626 75.5371 102.587 74.9862C102.265 70.4748 102.64 59.1724 106.446 48.0161C103.898 49.0853 101.442 50.973 98.812 53.3656C97.4962 54.5626 96.1603 55.8632 94.7569 57.2295C94.4228 57.5546 94.085 57.8836 93.7427 58.2157C91.9692 59.9363 90.0884 61.7307 88.0492 63.4855C79.8563 70.5351 69.1106 76.9332 52.0248 75.9132C51.5826 75.8868 51.2105 75.5726 51.1103 75.1411C49.9667 70.2147 50.5308 62.6942 55.838 55.994C61.1547 49.2819 71.1148 43.5357 88.4918 41.9192ZM143.837 72.9642C143.83 72.964 143.826 72.9643 143.826 72.9645C143.826 72.9647 143.83 72.9648 143.837 72.9642Z" fill="#FF27D0"/>
<path d="M183 68.2075C183 67.6552 182.552 67.2075 182 67.2075C181.448 67.2075 181 67.6552 181 68.2075V74.2075C181 74.7598 181.448 75.2075 182 75.2075C182.552 75.2075 183 74.7598 183 74.2075V68.2075Z" fill="#FF27D0"/>
<defs>
<filter id="filter0_f_226_59" x="10" y="10" width="343.584" height="86.0207" filterUnits="userSpaceOnUse" color-interpolation-filters="sRGB">
<feFlood flood-opacity="0" result="BackgroundImageFix"/>
<feBlend mode="normal" in="SourceGraphic" in2="BackgroundImageFix" result="shape"/>
<feGaussianBlur stdDeviation="10" result="effect1_foregroundBlur_226_59"/>
</filter>
<filter id="filter1_f_226_59" x="0" y="0" width="363.584" height="106.021" filterUnits="userSpaceOnUse" color-interpolation-filters="sRGB">
<feFlood flood-opacity="0" result="BackgroundImageFix"/>
<feBlend mode="normal" in="SourceGraphic" in2="BackgroundImageFix" result="shape"/>
<feGaussianBlur stdDeviation="15" result="effect1_foregroundBlur_226_59"/>
</filter>
<filter id="filter2_f_226_59" x="15" y="15" width="333.584" height="76.0207" filterUnits="userSpaceOnUse" color-interpolation-filters="sRGB">
<feFlood flood-opacity="0" result="BackgroundImageFix"/>
<feBlend mode="normal" in="SourceGraphic" in2="BackgroundImageFix" result="shape"/>
<feGaussianBlur stdDeviation="7.5" result="effect1_foregroundBlur_226_59"/>
</filter>
</defs>
</svg>
