<svg width="364" height="110" viewBox="0 0 364 110" fill="none" xmlns="http://www.w3.org/2000/svg">
<g filter="url(#filter0_f_2002_50)">
<path d="M305.484 73.839C292.615 74.3701 278.06 73.648 268.587 72.817C268.037 72.7688 267.552 73.1756 267.504 73.7258C267.455 74.276 267.862 74.7611 268.412 74.8094C277.94 75.6451 292.585 76.373 305.566 75.8373C312.053 75.5697 318.162 74.9852 323.022 73.9278C325.451 73.3993 327.601 72.7456 329.343 71.9365C331.07 71.1337 332.486 70.136 333.332 68.8679C333.404 68.7592 333.455 68.6374 333.48 68.5093C333.688 67.4709 333.7 64.9764 332.394 62.366C332.147 61.872 331.547 61.6718 331.053 61.9188C330.559 62.1658 330.358 62.7664 330.605 63.2604C331.607 65.2629 331.646 67.1393 331.549 67.926C330.971 68.6979 329.967 69.4409 328.5 70.1227C326.94 70.8474 324.945 71.4625 322.597 71.9736C317.9 72.9953 311.922 73.5734 305.484 73.839Z" fill="#71C4FF"/>
<path fill-rule="evenodd" clip-rule="evenodd" d="M274.004 63.4058C274.055 63.9557 274.543 64.3601 275.092 64.3089C292.469 62.6924 302.43 56.9462 307.746 50.2341C313.053 43.5339 313.618 36.0135 312.474 31.0871C312.374 30.6556 312.002 30.3414 311.559 30.315C294.474 29.2949 283.728 35.693 275.535 42.7427C273.496 44.4974 271.615 46.2919 269.842 48.0125C269.501 48.343 269.165 48.6703 268.832 48.9939L268.827 48.9987C267.424 50.3649 266.088 51.6655 264.772 52.8626C262.142 55.2551 259.687 57.1428 257.139 58.2121C260.944 47.0558 261.32 35.7533 260.997 31.2419C260.958 30.6911 260.479 30.2764 259.929 30.3157C259.378 30.3551 258.963 30.8336 259.002 31.3844C259.089 32.5985 259.123 34.3463 259.043 36.4735C258.843 36.3443 258.597 36.2854 258.344 36.3254C253.445 37.0989 246.085 39.9031 238.517 43.4057C232.039 46.4039 225.331 49.9502 219.752 53.27C219.995 52.5063 220.215 51.6772 220.412 50.8183C220.955 48.4536 221.367 45.6902 221.62 43.033C221.873 40.3784 221.97 37.7965 221.874 35.7961C221.826 34.8012 221.728 33.9112 221.563 33.2152C221.481 32.8688 221.373 32.5317 221.224 32.2417C221.084 31.9691 220.848 31.6193 220.447 31.4188C220.083 31.2368 219.705 31.2502 219.449 31.2854C219.172 31.3235 218.884 31.4097 218.605 31.5146C218.044 31.7254 217.377 32.0662 216.653 32.4848C215.195 33.3267 213.37 34.5623 211.44 35.9517C207.575 38.7354 203.207 42.2 200.364 44.5413C199.938 44.8924 199.877 45.5226 200.228 45.9489C200.579 46.3752 201.209 46.4362 201.636 46.0851C204.459 43.7598 208.791 40.3243 212.609 37.5747C214.522 36.1974 216.283 35.008 217.653 34.2166C218.342 33.8185 218.899 33.5406 219.308 33.3868C219.387 33.3573 219.455 33.3343 219.513 33.3166C219.546 33.4081 219.581 33.5268 219.617 33.6768C219.741 34.1996 219.83 34.9502 219.876 35.8928C219.967 37.7674 219.877 40.248 219.629 42.8434C219.382 45.4362 218.982 48.1103 218.463 50.3705C217.931 52.6832 217.31 54.3993 216.7 55.2132C216.411 55.5985 216.438 56.135 216.763 56.4897C217.089 56.8443 217.621 56.9164 218.03 56.6612C223.991 52.9354 231.829 48.7049 239.357 45.2207C246.914 41.7233 254.055 39.0274 258.656 38.301C258.764 38.2839 258.865 38.2502 258.957 38.2029C258.602 43.9753 257.447 51.86 254.565 59.4585C254.433 59.8066 254.505 60.1993 254.752 60.4775C255 60.7558 255.381 60.8736 255.742 60.7833C259.498 59.8443 262.81 57.3512 266.118 54.342C267.461 53.1203 268.827 51.7904 270.232 50.4226L270.233 50.4218C270.564 50.0991 270.898 49.7739 271.234 49.4479C273.002 47.733 274.848 45.9728 276.84 44.2587C284.648 37.5397 294.707 31.5219 310.677 32.2707C311.484 36.6836 310.8 43.1572 306.178 48.9923C301.303 55.1468 291.93 60.734 274.907 62.3175C274.357 62.3686 273.953 62.8559 274.004 63.4058ZM219.747 33.2639C219.754 33.2641 219.758 33.2638 219.758 33.2637C219.758 33.2635 219.755 33.2634 219.747 33.2639Z" fill="#71C4FF"/>
<path d="M58.1006 73.6316C70.9696 74.1626 85.5243 73.4405 94.997 72.6095C95.5472 72.5613 96.0323 72.9682 96.0806 73.5183C96.1288 74.0685 95.722 74.5536 95.1718 74.6019C85.6445 75.4376 70.9992 76.1655 58.0182 75.6299C51.5317 75.3622 45.4224 74.7777 40.5624 73.7204C38.1331 73.1918 35.9828 72.5382 34.2415 71.729C32.5139 70.9262 31.0978 69.9286 30.2524 68.6604C30.1799 68.5517 30.1295 68.4299 30.1038 68.3018C29.8962 67.2635 29.8848 64.769 31.19 62.1585C31.437 61.6645 32.0377 61.4643 32.5316 61.7113C33.0256 61.9583 33.2258 62.559 32.9788 63.0529C31.9776 65.0554 31.9383 66.9319 32.035 67.7185C32.6134 68.4904 33.617 69.2334 35.0843 69.9153C36.6438 70.6399 38.6389 71.2551 40.9876 71.7661C45.684 72.7879 51.6621 73.3659 58.1006 73.6316Z" fill="#71C4FF"/>
<path fill-rule="evenodd" clip-rule="evenodd" d="M88.4918 64.1014C89.0417 64.1526 89.529 63.7483 89.5801 63.1983C89.6313 62.6484 89.2269 62.1612 88.677 62.11C71.654 60.5265 62.2808 54.9393 57.4058 48.7848C52.7838 42.9497 52.1004 36.4761 52.9071 32.0633C68.8774 31.3144 78.9361 37.3323 86.7447 44.0512C88.7367 45.7653 90.5824 47.5255 92.35 49.2404C92.6838 49.5643 93.0152 49.8869 93.3445 50.2075L93.351 50.2138C94.7563 51.582 96.1229 52.9124 97.4662 54.1345C100.774 57.1437 104.086 59.6369 107.842 60.5759C108.203 60.6662 108.585 60.5483 108.832 60.2701C109.079 59.9918 109.151 59.5992 109.019 59.2511C106.137 51.6526 104.982 43.7679 104.627 37.9954C104.719 38.0427 104.821 38.0764 104.928 38.0935C109.529 38.82 116.67 41.5158 124.227 45.0132C131.755 48.4974 139.593 52.7279 145.554 56.4537C145.963 56.709 146.495 56.6369 146.821 56.2822C147.147 55.9275 147.173 55.391 146.884 55.0057C146.274 54.1919 145.653 52.4758 145.122 50.1631C144.602 47.9028 144.202 45.2287 143.955 42.6359C143.708 40.0406 143.618 37.5599 143.708 35.6853C143.754 34.7427 143.844 33.9921 143.968 33.4693C144.003 33.3194 144.039 33.2007 144.071 33.1092C144.13 33.1269 144.198 33.1498 144.276 33.1793C144.685 33.3331 145.242 33.6111 145.931 34.0091C147.301 34.8005 149.063 35.9899 150.975 37.3672C154.793 40.1169 159.125 43.5523 161.949 45.8777C162.375 46.2287 163.005 46.1678 163.356 45.7414C163.707 45.3151 163.646 44.6849 163.22 44.3338C160.377 41.9925 156.009 38.5279 152.144 35.7443C150.215 34.3549 148.389 33.1193 146.932 32.2773C146.207 31.8587 145.54 31.5179 144.98 31.3072C144.7 31.2023 144.413 31.116 144.135 31.0779C143.879 31.0427 143.501 31.0293 143.137 31.2113C142.736 31.4119 142.5 31.7616 142.36 32.0342C142.211 32.3242 142.104 32.6614 142.022 33.0078C141.856 33.7037 141.759 34.5937 141.711 35.5886C141.614 37.589 141.711 40.1709 141.964 42.8255C142.217 45.4827 142.629 48.2461 143.172 50.6109C143.37 51.4697 143.589 52.2988 143.832 53.0625C138.253 49.7427 131.545 46.1964 125.067 43.1982C117.499 39.6956 110.139 36.8915 105.24 36.118C104.987 36.078 104.741 36.1368 104.541 36.266C104.462 34.1388 104.495 32.391 104.582 31.177C104.621 30.6261 104.207 30.1476 103.656 30.1083C103.105 30.0689 102.626 30.4836 102.587 31.0345C102.265 35.5458 102.64 46.8483 106.446 58.0046C103.898 56.9353 101.442 55.0477 98.812 52.6551C97.4962 51.4581 96.1603 50.1575 94.7569 48.7912C94.4228 48.466 94.085 48.1371 93.7427 47.805C91.9692 46.0844 90.0884 44.2899 88.0492 42.5352C79.8563 35.4856 69.1106 29.0875 52.0248 30.1075C51.5826 30.1339 51.2105 30.4481 51.1103 30.8796C49.9667 35.806 50.5308 43.3265 55.838 50.0266C61.1547 56.7388 71.1148 62.485 88.4918 64.1014ZM143.837 33.0564C143.83 33.0566 143.826 33.0564 143.826 33.0562C143.826 33.056 143.83 33.0559 143.837 33.0564Z" fill="#71C4FF"/>
<path d="M183 37.8132C183 38.3655 182.552 38.8132 182 38.8132C181.448 38.8132 181 38.3655 181 37.8132V31.8132C181 31.2609 181.448 30.8132 182 30.8132C182.552 30.8132 183 31.2609 183 31.8132V37.8132Z" fill="#71C4FF"/>
</g>
<g filter="url(#filter1_f_2002_50)">
<path d="M305.484 73.839C292.615 74.3701 278.06 73.648 268.587 72.817C268.037 72.7688 267.552 73.1756 267.504 73.7258C267.455 74.276 267.862 74.7611 268.412 74.8094C277.94 75.6451 292.585 76.373 305.566 75.8373C312.053 75.5697 318.162 74.9852 323.022 73.9278C325.451 73.3993 327.601 72.7456 329.343 71.9365C331.07 71.1337 332.486 70.136 333.332 68.8679C333.404 68.7592 333.455 68.6374 333.48 68.5093C333.688 67.4709 333.7 64.9764 332.394 62.366C332.147 61.872 331.547 61.6718 331.053 61.9188C330.559 62.1658 330.358 62.7664 330.605 63.2604C331.607 65.2629 331.646 67.1393 331.549 67.926C330.971 68.6979 329.967 69.4409 328.5 70.1227C326.94 70.8474 324.945 71.4625 322.597 71.9736C317.9 72.9953 311.922 73.5734 305.484 73.839Z" fill="#71C4FF"/>
<path fill-rule="evenodd" clip-rule="evenodd" d="M274.004 63.4058C274.055 63.9557 274.543 64.3601 275.092 64.3089C292.469 62.6924 302.43 56.9462 307.746 50.2341C313.053 43.5339 313.618 36.0135 312.474 31.0871C312.374 30.6556 312.002 30.3414 311.559 30.315C294.474 29.2949 283.728 35.693 275.535 42.7427C273.496 44.4974 271.615 46.2919 269.842 48.0125C269.501 48.343 269.165 48.6703 268.832 48.9939L268.827 48.9987C267.424 50.3649 266.088 51.6655 264.772 52.8626C262.142 55.2551 259.687 57.1428 257.139 58.2121C260.944 47.0558 261.32 35.7533 260.997 31.2419C260.958 30.6911 260.479 30.2764 259.929 30.3157C259.378 30.3551 258.963 30.8336 259.002 31.3844C259.089 32.5985 259.123 34.3463 259.043 36.4735C258.843 36.3443 258.597 36.2854 258.344 36.3254C253.445 37.0989 246.085 39.9031 238.517 43.4057C232.039 46.4039 225.331 49.9502 219.752 53.27C219.995 52.5063 220.215 51.6772 220.412 50.8183C220.955 48.4536 221.367 45.6902 221.62 43.033C221.873 40.3784 221.97 37.7965 221.874 35.7961C221.826 34.8012 221.728 33.9112 221.563 33.2152C221.481 32.8688 221.373 32.5317 221.224 32.2417C221.084 31.9691 220.848 31.6193 220.447 31.4188C220.083 31.2368 219.705 31.2502 219.449 31.2854C219.172 31.3235 218.884 31.4097 218.605 31.5146C218.044 31.7254 217.377 32.0662 216.653 32.4848C215.195 33.3267 213.37 34.5623 211.44 35.9517C207.575 38.7354 203.207 42.2 200.364 44.5413C199.938 44.8924 199.877 45.5226 200.228 45.9489C200.579 46.3752 201.209 46.4362 201.636 46.0851C204.459 43.7598 208.791 40.3243 212.609 37.5747C214.522 36.1974 216.283 35.008 217.653 34.2166C218.342 33.8185 218.899 33.5406 219.308 33.3868C219.387 33.3573 219.455 33.3343 219.513 33.3166C219.546 33.4081 219.581 33.5268 219.617 33.6768C219.741 34.1996 219.83 34.9502 219.876 35.8928C219.967 37.7674 219.877 40.248 219.629 42.8434C219.382 45.4362 218.982 48.1103 218.463 50.3705C217.931 52.6832 217.31 54.3993 216.7 55.2132C216.411 55.5985 216.438 56.135 216.763 56.4897C217.089 56.8443 217.621 56.9164 218.03 56.6612C223.991 52.9354 231.829 48.7049 239.357 45.2207C246.914 41.7233 254.055 39.0274 258.656 38.301C258.764 38.2839 258.865 38.2502 258.957 38.2029C258.602 43.9753 257.447 51.86 254.565 59.4585C254.433 59.8066 254.505 60.1993 254.752 60.4775C255 60.7558 255.381 60.8736 255.742 60.7833C259.498 59.8443 262.81 57.3512 266.118 54.342C267.461 53.1203 268.827 51.7904 270.232 50.4226L270.233 50.4218C270.564 50.0991 270.898 49.7739 271.234 49.4479C273.002 47.733 274.848 45.9728 276.84 44.2587C284.648 37.5397 294.707 31.5219 310.677 32.2707C311.484 36.6836 310.8 43.1572 306.178 48.9923C301.303 55.1468 291.93 60.734 274.907 62.3175C274.357 62.3686 273.953 62.8559 274.004 63.4058ZM219.747 33.2639C219.754 33.2641 219.758 33.2638 219.758 33.2637C219.758 33.2635 219.755 33.2634 219.747 33.2639Z" fill="#71C4FF"/>
<path d="M58.1006 73.6316C70.9696 74.1626 85.5243 73.4405 94.997 72.6095C95.5472 72.5613 96.0323 72.9682 96.0806 73.5183C96.1288 74.0685 95.722 74.5536 95.1718 74.6019C85.6445 75.4376 70.9992 76.1655 58.0182 75.6299C51.5317 75.3622 45.4224 74.7777 40.5624 73.7204C38.1331 73.1918 35.9828 72.5382 34.2415 71.729C32.5139 70.9262 31.0978 69.9286 30.2524 68.6604C30.1799 68.5517 30.1295 68.4299 30.1038 68.3018C29.8962 67.2635 29.8848 64.769 31.19 62.1585C31.437 61.6645 32.0377 61.4643 32.5316 61.7113C33.0256 61.9583 33.2258 62.559 32.9788 63.0529C31.9776 65.0554 31.9383 66.9319 32.035 67.7185C32.6134 68.4904 33.617 69.2334 35.0843 69.9153C36.6438 70.6399 38.6389 71.2551 40.9876 71.7661C45.684 72.7879 51.6621 73.3659 58.1006 73.6316Z" fill="#71C4FF"/>
<path fill-rule="evenodd" clip-rule="evenodd" d="M88.4918 64.1014C89.0417 64.1526 89.529 63.7483 89.5801 63.1983C89.6313 62.6484 89.2269 62.1612 88.677 62.11C71.654 60.5265 62.2808 54.9393 57.4058 48.7848C52.7838 42.9497 52.1004 36.4761 52.9071 32.0633C68.8774 31.3144 78.9361 37.3323 86.7447 44.0512C88.7367 45.7653 90.5824 47.5255 92.35 49.2404C92.6838 49.5643 93.0152 49.8869 93.3445 50.2075L93.351 50.2138C94.7563 51.582 96.1229 52.9124 97.4662 54.1345C100.774 57.1437 104.086 59.6369 107.842 60.5759C108.203 60.6662 108.585 60.5483 108.832 60.2701C109.079 59.9918 109.151 59.5992 109.019 59.2511C106.137 51.6526 104.982 43.7679 104.627 37.9954C104.719 38.0427 104.821 38.0764 104.928 38.0935C109.529 38.82 116.67 41.5158 124.227 45.0132C131.755 48.4974 139.593 52.7279 145.554 56.4537C145.963 56.709 146.495 56.6369 146.821 56.2822C147.147 55.9275 147.173 55.391 146.884 55.0057C146.274 54.1919 145.653 52.4758 145.122 50.1631C144.602 47.9028 144.202 45.2287 143.955 42.6359C143.708 40.0406 143.618 37.5599 143.708 35.6853C143.754 34.7427 143.844 33.9921 143.968 33.4693C144.003 33.3194 144.039 33.2007 144.071 33.1092C144.13 33.1269 144.198 33.1498 144.276 33.1793C144.685 33.3331 145.242 33.6111 145.931 34.0091C147.301 34.8005 149.063 35.9899 150.975 37.3672C154.793 40.1169 159.125 43.5523 161.949 45.8777C162.375 46.2287 163.005 46.1678 163.356 45.7414C163.707 45.3151 163.646 44.6849 163.22 44.3338C160.377 41.9925 156.009 38.5279 152.144 35.7443C150.215 34.3549 148.389 33.1193 146.932 32.2773C146.207 31.8587 145.54 31.5179 144.98 31.3072C144.7 31.2023 144.413 31.116 144.135 31.0779C143.879 31.0427 143.501 31.0293 143.137 31.2113C142.736 31.4119 142.5 31.7616 142.36 32.0342C142.211 32.3242 142.104 32.6614 142.022 33.0078C141.856 33.7037 141.759 34.5937 141.711 35.5886C141.614 37.589 141.711 40.1709 141.964 42.8255C142.217 45.4827 142.629 48.2461 143.172 50.6109C143.37 51.4697 143.589 52.2988 143.832 53.0625C138.253 49.7427 131.545 46.1964 125.067 43.1982C117.499 39.6956 110.139 36.8915 105.24 36.118C104.987 36.078 104.741 36.1368 104.541 36.266C104.462 34.1388 104.495 32.391 104.582 31.177C104.621 30.6261 104.207 30.1476 103.656 30.1083C103.105 30.0689 102.626 30.4836 102.587 31.0345C102.265 35.5458 102.64 46.8483 106.446 58.0046C103.898 56.9353 101.442 55.0477 98.812 52.6551C97.4962 51.4581 96.1603 50.1575 94.7569 48.7912C94.4228 48.466 94.085 48.1371 93.7427 47.805C91.9692 46.0844 90.0884 44.2899 88.0492 42.5352C79.8563 35.4856 69.1106 29.0875 52.0248 30.1075C51.5826 30.1339 51.2105 30.4481 51.1103 30.8796C49.9667 35.806 50.5308 43.3265 55.838 50.0266C61.1547 56.7388 71.1148 62.485 88.4918 64.1014ZM143.837 33.0564C143.83 33.0566 143.826 33.0564 143.826 33.0562C143.826 33.056 143.83 33.0559 143.837 33.0564Z" fill="#71C4FF"/>
<path d="M183 37.8132C183 38.3655 182.552 38.8132 182 38.8132C181.448 38.8132 181 38.3655 181 37.8132V31.8132C181 31.2609 181.448 30.8132 182 30.8132C182.552 30.8132 183 31.2609 183 31.8132V37.8132Z" fill="#71C4FF"/>
</g>
<g filter="url(#filter2_f_2002_50)">
<path d="M305.484 73.839C292.615 74.3701 278.06 73.648 268.587 72.817C268.037 72.7688 267.552 73.1756 267.504 73.7258C267.455 74.276 267.862 74.7611 268.412 74.8094C277.94 75.6451 292.585 76.373 305.566 75.8373C312.053 75.5697 318.162 74.9852 323.022 73.9278C325.451 73.3993 327.601 72.7456 329.343 71.9365C331.07 71.1337 332.486 70.136 333.332 68.8679C333.404 68.7592 333.455 68.6374 333.48 68.5093C333.688 67.4709 333.7 64.9764 332.394 62.366C332.147 61.872 331.547 61.6718 331.053 61.9188C330.559 62.1658 330.358 62.7664 330.605 63.2604C331.607 65.2629 331.646 67.1393 331.549 67.926C330.971 68.6979 329.967 69.4409 328.5 70.1227C326.94 70.8474 324.945 71.4625 322.597 71.9736C317.9 72.9953 311.922 73.5734 305.484 73.839Z" fill="#71C4FF"/>
<path fill-rule="evenodd" clip-rule="evenodd" d="M274.004 63.4058C274.055 63.9557 274.543 64.3601 275.092 64.3089C292.469 62.6924 302.43 56.9462 307.746 50.2341C313.053 43.5339 313.618 36.0135 312.474 31.0871C312.374 30.6556 312.002 30.3414 311.559 30.315C294.474 29.2949 283.728 35.693 275.535 42.7427C273.496 44.4974 271.615 46.2919 269.842 48.0125C269.501 48.343 269.165 48.6703 268.832 48.9939L268.827 48.9987C267.424 50.3649 266.088 51.6655 264.772 52.8626C262.142 55.2551 259.687 57.1428 257.139 58.2121C260.944 47.0558 261.32 35.7533 260.997 31.2419C260.958 30.6911 260.479 30.2764 259.929 30.3157C259.378 30.3551 258.963 30.8336 259.002 31.3844C259.089 32.5985 259.123 34.3463 259.043 36.4735C258.843 36.3443 258.597 36.2854 258.344 36.3254C253.445 37.0989 246.085 39.9031 238.517 43.4057C232.039 46.4039 225.331 49.9502 219.752 53.27C219.995 52.5063 220.215 51.6772 220.412 50.8183C220.955 48.4536 221.367 45.6902 221.62 43.033C221.873 40.3784 221.97 37.7965 221.874 35.7961C221.826 34.8012 221.728 33.9112 221.563 33.2152C221.481 32.8688 221.373 32.5317 221.224 32.2417C221.084 31.9691 220.848 31.6193 220.447 31.4188C220.083 31.2368 219.705 31.2502 219.449 31.2854C219.172 31.3235 218.884 31.4097 218.605 31.5146C218.044 31.7254 217.377 32.0662 216.653 32.4848C215.195 33.3267 213.37 34.5623 211.44 35.9517C207.575 38.7354 203.207 42.2 200.364 44.5413C199.938 44.8924 199.877 45.5226 200.228 45.9489C200.579 46.3752 201.209 46.4362 201.636 46.0851C204.459 43.7598 208.791 40.3243 212.609 37.5747C214.522 36.1974 216.283 35.008 217.653 34.2166C218.342 33.8185 218.899 33.5406 219.308 33.3868C219.387 33.3573 219.455 33.3343 219.513 33.3166C219.546 33.4081 219.581 33.5268 219.617 33.6768C219.741 34.1996 219.83 34.9502 219.876 35.8928C219.967 37.7674 219.877 40.248 219.629 42.8434C219.382 45.4362 218.982 48.1103 218.463 50.3705C217.931 52.6832 217.31 54.3993 216.7 55.2132C216.411 55.5985 216.438 56.135 216.763 56.4897C217.089 56.8443 217.621 56.9164 218.03 56.6612C223.991 52.9354 231.829 48.7049 239.357 45.2207C246.914 41.7233 254.055 39.0274 258.656 38.301C258.764 38.2839 258.865 38.2502 258.957 38.2029C258.602 43.9753 257.447 51.86 254.565 59.4585C254.433 59.8066 254.505 60.1993 254.752 60.4775C255 60.7558 255.381 60.8736 255.742 60.7833C259.498 59.8443 262.81 57.3512 266.118 54.342C267.461 53.1203 268.827 51.7904 270.232 50.4226L270.233 50.4218C270.564 50.0991 270.898 49.7739 271.234 49.4479C273.002 47.733 274.848 45.9728 276.84 44.2587C284.648 37.5397 294.707 31.5219 310.677 32.2707C311.484 36.6836 310.8 43.1572 306.178 48.9923C301.303 55.1468 291.93 60.734 274.907 62.3175C274.357 62.3686 273.953 62.8559 274.004 63.4058ZM219.747 33.2639C219.754 33.2641 219.758 33.2638 219.758 33.2637C219.758 33.2635 219.755 33.2634 219.747 33.2639Z" fill="#71C4FF"/>
<path d="M58.1006 73.6316C70.9696 74.1626 85.5243 73.4405 94.997 72.6095C95.5472 72.5613 96.0323 72.9682 96.0806 73.5183C96.1288 74.0685 95.722 74.5536 95.1718 74.6019C85.6445 75.4376 70.9992 76.1655 58.0182 75.6299C51.5317 75.3622 45.4224 74.7777 40.5624 73.7204C38.1331 73.1918 35.9828 72.5382 34.2415 71.729C32.5139 70.9262 31.0978 69.9286 30.2524 68.6604C30.1799 68.5517 30.1295 68.4299 30.1038 68.3018C29.8962 67.2635 29.8848 64.769 31.19 62.1585C31.437 61.6645 32.0377 61.4643 32.5316 61.7113C33.0256 61.9583 33.2258 62.559 32.9788 63.0529C31.9776 65.0554 31.9383 66.9319 32.035 67.7185C32.6134 68.4904 33.617 69.2334 35.0843 69.9153C36.6438 70.6399 38.6389 71.2551 40.9876 71.7661C45.684 72.7879 51.6621 73.3659 58.1006 73.6316Z" fill="#71C4FF"/>
<path fill-rule="evenodd" clip-rule="evenodd" d="M88.4918 64.1014C89.0417 64.1526 89.529 63.7483 89.5801 63.1983C89.6313 62.6484 89.2269 62.1612 88.677 62.11C71.654 60.5265 62.2808 54.9393 57.4058 48.7848C52.7838 42.9497 52.1004 36.4761 52.9071 32.0633C68.8774 31.3144 78.9361 37.3323 86.7447 44.0512C88.7367 45.7653 90.5824 47.5255 92.35 49.2404C92.6838 49.5643 93.0152 49.8869 93.3445 50.2075L93.351 50.2138C94.7563 51.582 96.1229 52.9124 97.4662 54.1345C100.774 57.1437 104.086 59.6369 107.842 60.5759C108.203 60.6662 108.585 60.5483 108.832 60.2701C109.079 59.9918 109.151 59.5992 109.019 59.2511C106.137 51.6526 104.982 43.7679 104.627 37.9954C104.719 38.0427 104.821 38.0764 104.928 38.0935C109.529 38.82 116.67 41.5158 124.227 45.0132C131.755 48.4974 139.593 52.7279 145.554 56.4537C145.963 56.709 146.495 56.6369 146.821 56.2822C147.147 55.9275 147.173 55.391 146.884 55.0057C146.274 54.1919 145.653 52.4758 145.122 50.1631C144.602 47.9028 144.202 45.2287 143.955 42.6359C143.708 40.0406 143.618 37.5599 143.708 35.6853C143.754 34.7427 143.844 33.9921 143.968 33.4693C144.003 33.3194 144.039 33.2007 144.071 33.1092C144.13 33.1269 144.198 33.1498 144.276 33.1793C144.685 33.3331 145.242 33.6111 145.931 34.0091C147.301 34.8005 149.063 35.9899 150.975 37.3672C154.793 40.1169 159.125 43.5523 161.949 45.8777C162.375 46.2287 163.005 46.1678 163.356 45.7414C163.707 45.3151 163.646 44.6849 163.22 44.3338C160.377 41.9925 156.009 38.5279 152.144 35.7443C150.215 34.3549 148.389 33.1193 146.932 32.2773C146.207 31.8587 145.54 31.5179 144.98 31.3072C144.7 31.2023 144.413 31.116 144.135 31.0779C143.879 31.0427 143.501 31.0293 143.137 31.2113C142.736 31.4119 142.5 31.7616 142.36 32.0342C142.211 32.3242 142.104 32.6614 142.022 33.0078C141.856 33.7037 141.759 34.5937 141.711 35.5886C141.614 37.589 141.711 40.1709 141.964 42.8255C142.217 45.4827 142.629 48.2461 143.172 50.6109C143.37 51.4697 143.589 52.2988 143.832 53.0625C138.253 49.7427 131.545 46.1964 125.067 43.1982C117.499 39.6956 110.139 36.8915 105.24 36.118C104.987 36.078 104.741 36.1368 104.541 36.266C104.462 34.1388 104.495 32.391 104.582 31.177C104.621 30.6261 104.207 30.1476 103.656 30.1083C103.105 30.0689 102.626 30.4836 102.587 31.0345C102.265 35.5458 102.64 46.8483 106.446 58.0046C103.898 56.9353 101.442 55.0477 98.812 52.6551C97.4962 51.4581 96.1603 50.1575 94.7569 48.7912C94.4228 48.466 94.085 48.1371 93.7427 47.805C91.9692 46.0844 90.0884 44.2899 88.0492 42.5352C79.8563 35.4856 69.1106 29.0875 52.0248 30.1075C51.5826 30.1339 51.2105 30.4481 51.1103 30.8796C49.9667 35.806 50.5308 43.3265 55.838 50.0266C61.1547 56.7388 71.1148 62.485 88.4918 64.1014ZM143.837 33.0564C143.83 33.0566 143.826 33.0564 143.826 33.0562C143.826 33.056 143.83 33.0559 143.837 33.0564Z" fill="#71C4FF"/>
<path d="M183 37.8132C183 38.3655 182.552 38.8132 182 38.8132C181.448 38.8132 181 38.3655 181 37.8132V31.8132C181 31.2609 181.448 30.8132 182 30.8132C182.552 30.8132 183 31.2609 183 31.8132V37.8132Z" fill="#71C4FF"/>
</g>
<path d="M305.484 73.839C292.615 74.3701 278.06 73.648 268.587 72.817C268.037 72.7688 267.552 73.1756 267.504 73.7258C267.455 74.276 267.862 74.7611 268.412 74.8094C277.94 75.6451 292.585 76.373 305.566 75.8373C312.053 75.5697 318.162 74.9852 323.022 73.9278C325.451 73.3993 327.601 72.7456 329.343 71.9365C331.07 71.1337 332.486 70.136 333.332 68.8679C333.404 68.7592 333.455 68.6374 333.48 68.5093C333.688 67.4709 333.7 64.9764 332.394 62.366C332.147 61.872 331.547 61.6718 331.053 61.9188C330.559 62.1658 330.358 62.7664 330.605 63.2604C331.607 65.2629 331.646 67.1393 331.549 67.926C330.971 68.6979 329.967 69.4409 328.5 70.1227C326.94 70.8474 324.945 71.4625 322.597 71.9736C317.9 72.9953 311.922 73.5734 305.484 73.839Z" fill="#A5D9FE"/>
<path fill-rule="evenodd" clip-rule="evenodd" d="M274.004 63.4058C274.055 63.9557 274.543 64.3601 275.092 64.3089C292.469 62.6924 302.43 56.9462 307.746 50.2341C313.053 43.5339 313.618 36.0135 312.474 31.0871C312.374 30.6556 312.002 30.3414 311.559 30.315C294.474 29.2949 283.728 35.693 275.535 42.7427C273.496 44.4974 271.615 46.2919 269.842 48.0125C269.501 48.343 269.165 48.6703 268.832 48.9939L268.827 48.9987C267.424 50.3649 266.088 51.6655 264.772 52.8626C262.142 55.2551 259.687 57.1428 257.139 58.2121C260.944 47.0558 261.32 35.7533 260.997 31.2419C260.958 30.6911 260.479 30.2764 259.929 30.3157C259.378 30.3551 258.963 30.8336 259.002 31.3844C259.089 32.5985 259.123 34.3463 259.043 36.4735C258.843 36.3443 258.597 36.2854 258.344 36.3254C253.445 37.0989 246.085 39.9031 238.517 43.4057C232.039 46.4039 225.331 49.9502 219.752 53.27C219.995 52.5063 220.215 51.6772 220.412 50.8183C220.955 48.4536 221.367 45.6902 221.62 43.033C221.873 40.3784 221.97 37.7965 221.874 35.7961C221.826 34.8012 221.728 33.9112 221.563 33.2152C221.481 32.8688 221.373 32.5317 221.224 32.2417C221.084 31.9691 220.848 31.6193 220.447 31.4188C220.083 31.2368 219.705 31.2502 219.449 31.2854C219.172 31.3235 218.884 31.4097 218.605 31.5146C218.044 31.7254 217.377 32.0662 216.653 32.4848C215.195 33.3267 213.37 34.5623 211.44 35.9517C207.575 38.7354 203.207 42.2 200.364 44.5413C199.938 44.8924 199.877 45.5226 200.228 45.9489C200.579 46.3752 201.209 46.4362 201.636 46.0851C204.459 43.7598 208.791 40.3243 212.609 37.5747C214.522 36.1974 216.283 35.008 217.653 34.2166C218.342 33.8185 218.899 33.5406 219.308 33.3868C219.387 33.3573 219.455 33.3343 219.513 33.3166C219.546 33.4081 219.581 33.5268 219.617 33.6768C219.741 34.1996 219.83 34.9502 219.876 35.8928C219.967 37.7674 219.877 40.248 219.629 42.8434C219.382 45.4362 218.982 48.1103 218.463 50.3705C217.931 52.6832 217.31 54.3993 216.7 55.2132C216.411 55.5985 216.438 56.135 216.763 56.4897C217.089 56.8443 217.621 56.9164 218.03 56.6612C223.991 52.9354 231.829 48.7049 239.357 45.2207C246.914 41.7233 254.055 39.0274 258.656 38.301C258.764 38.2839 258.865 38.2502 258.957 38.2029C258.602 43.9753 257.447 51.86 254.565 59.4585C254.433 59.8066 254.505 60.1993 254.752 60.4775C255 60.7558 255.381 60.8736 255.742 60.7833C259.498 59.8443 262.81 57.3512 266.118 54.342C267.461 53.1203 268.827 51.7904 270.232 50.4226L270.233 50.4218C270.564 50.0991 270.898 49.7739 271.234 49.4479C273.002 47.733 274.848 45.9728 276.84 44.2587C284.648 37.5397 294.707 31.5219 310.677 32.2707C311.484 36.6836 310.8 43.1572 306.178 48.9923C301.303 55.1468 291.93 60.734 274.907 62.3175C274.357 62.3686 273.953 62.8559 274.004 63.4058ZM219.747 33.2639C219.754 33.2641 219.758 33.2637 219.758 33.2637C219.758 33.2637 219.755 33.2634 219.747 33.2639Z" fill="#A5D9FE"/>
<path d="M58.1006 73.6316C70.9696 74.1626 85.5243 73.4405 94.997 72.6095C95.5472 72.5613 96.0323 72.9682 96.0806 73.5183C96.1288 74.0685 95.722 74.5536 95.1718 74.6019C85.6445 75.4376 70.9992 76.1655 58.0182 75.6299C51.5317 75.3622 45.4224 74.7777 40.5624 73.7204C38.1331 73.1918 35.9828 72.5382 34.2415 71.729C32.5139 70.9262 31.0978 69.9286 30.2524 68.6604C30.1799 68.5517 30.1295 68.4299 30.1038 68.3018C29.8962 67.2635 29.8848 64.769 31.19 62.1585C31.437 61.6645 32.0377 61.4643 32.5316 61.7113C33.0256 61.9583 33.2258 62.559 32.9788 63.0529C31.9776 65.0554 31.9383 66.9319 32.035 67.7185C32.6134 68.4904 33.617 69.2334 35.0843 69.9153C36.6438 70.6399 38.6389 71.2551 40.9876 71.7661C45.684 72.7879 51.6621 73.3659 58.1006 73.6316Z" fill="#A5D9FE"/>
<path fill-rule="evenodd" clip-rule="evenodd" d="M88.4918 64.1014C89.0417 64.1526 89.529 63.7483 89.5801 63.1983C89.6313 62.6484 89.2269 62.1612 88.677 62.11C71.654 60.5265 62.2808 54.9393 57.4058 48.7848C52.7838 42.9497 52.1004 36.4761 52.9071 32.0633C68.8774 31.3144 78.9361 37.3323 86.7447 44.0512C88.7367 45.7653 90.5824 47.5255 92.35 49.2404C92.6838 49.5643 93.0152 49.8869 93.3445 50.2075L93.351 50.2138C94.7563 51.582 96.1229 52.9124 97.4662 54.1345C100.774 57.1437 104.086 59.6369 107.842 60.5759C108.203 60.6662 108.585 60.5483 108.832 60.2701C109.079 59.9918 109.151 59.5992 109.019 59.2511C106.137 51.6526 104.982 43.7679 104.627 37.9954C104.719 38.0427 104.821 38.0764 104.928 38.0935C109.529 38.82 116.67 41.5158 124.227 45.0132C131.755 48.4974 139.593 52.7279 145.554 56.4537C145.963 56.709 146.495 56.6369 146.821 56.2822C147.147 55.9275 147.173 55.391 146.884 55.0057C146.274 54.1919 145.653 52.4758 145.122 50.1631C144.602 47.9028 144.202 45.2287 143.955 42.6359C143.708 40.0406 143.618 37.5599 143.708 35.6853C143.754 34.7427 143.844 33.9921 143.968 33.4693C144.003 33.3194 144.039 33.2007 144.071 33.1092C144.13 33.1269 144.198 33.1498 144.276 33.1793C144.685 33.3331 145.242 33.6111 145.931 34.0091C147.301 34.8005 149.063 35.9899 150.975 37.3672C154.793 40.1169 159.125 43.5523 161.949 45.8777C162.375 46.2287 163.005 46.1678 163.356 45.7414C163.707 45.3151 163.646 44.6849 163.22 44.3338C160.377 41.9925 156.009 38.5279 152.144 35.7443C150.215 34.3549 148.389 33.1193 146.932 32.2773C146.207 31.8587 145.54 31.5179 144.98 31.3072C144.7 31.2023 144.413 31.116 144.135 31.0779C143.879 31.0427 143.501 31.0293 143.137 31.2113C142.736 31.4119 142.5 31.7616 142.36 32.0342C142.211 32.3242 142.104 32.6614 142.022 33.0078C141.856 33.7037 141.759 34.5937 141.711 35.5886C141.614 37.589 141.711 40.1709 141.964 42.8255C142.217 45.4827 142.629 48.2461 143.172 50.6109C143.37 51.4697 143.589 52.2988 143.832 53.0625C138.253 49.7427 131.545 46.1964 125.067 43.1982C117.499 39.6956 110.139 36.8915 105.24 36.118C104.987 36.078 104.741 36.1368 104.541 36.266C104.462 34.1388 104.495 32.391 104.582 31.177C104.621 30.6261 104.207 30.1476 103.656 30.1083C103.105 30.0689 102.626 30.4836 102.587 31.0345C102.265 35.5458 102.64 46.8483 106.446 58.0046C103.898 56.9353 101.442 55.0477 98.812 52.6551C97.4962 51.4581 96.1603 50.1575 94.7569 48.7912C94.4228 48.466 94.085 48.1371 93.7427 47.805C91.9692 46.0844 90.0884 44.2899 88.0492 42.5352C79.8563 35.4856 69.1106 29.0875 52.0248 30.1075C51.5826 30.1339 51.2105 30.4481 51.1103 30.8796C49.9667 35.806 50.5308 43.3265 55.838 50.0266C61.1547 56.7388 71.1148 62.485 88.4918 64.1014ZM143.837 33.0564C143.83 33.0566 143.826 33.0562 143.826 33.0562C143.826 33.0562 143.83 33.0559 143.837 33.0564Z" fill="#A5D9FE"/>
<path d="M183 37.8132C183 38.3655 182.552 38.8132 182 38.8132C181.448 38.8132 181 38.3655 181 37.8132V31.8132C181 31.2609 181.448 30.8132 182 30.8132C182.552 30.8132 183 31.2609 183 31.8132V37.8132Z" fill="#A5D9FE"/>
<path d="M163.282 97.3531L165.011 99.5752L170.195 98.5876L174.886 96.6125C179.231 102.933 181.799 104.513 182.54 104.513L188.712 96.6125C197.403 100.76 198.917 99.6575 198.588 98.5876V87.4775H200.563C209.056 87.4775 214.306 84.0211 215.87 82.2929V80.0708L206.488 76.6144C215.376 73.2567 216.446 68.467 215.87 66.4919C211.92 67.2819 210.932 66.1627 210.932 65.5043C211.92 58.5914 210.521 58.3445 209.698 59.0852L202.785 60.0727L200.563 59.0852C200.76 52.1723 198.341 48.9627 197.106 48.222C194.341 45.8519 186.243 55.1349 182.54 60.0727C174.244 48.4195 169.537 46.823 168.22 47.4813C165.652 46.0987 163.365 55.2995 162.542 60.0727C153.654 57.3076 151.925 58.9206 152.172 60.0727L152.913 66.4919C148.765 65.5043 147.234 66.9034 146.988 67.7263C146.198 71.4791 154.065 75.2153 158.098 76.6144L147.975 79.3302V80.8115C151.728 86.7369 160.896 87.7244 165.011 87.4775L163.282 97.3531Z" fill="#FD7AFC"/>
<path d="M181.552 74.4728C182.507 74.4728 183.28 73.699 183.28 72.7446C183.28 71.7901 182.507 71.0163 181.552 71.0163C180.598 71.0163 179.824 71.7901 179.824 72.7446C179.824 73.699 180.598 74.4728 181.552 74.4728Z" fill="white"/>
<path fill-rule="evenodd" clip-rule="evenodd" d="M182.513 58.4636C178.806 53.2724 175.948 50.1161 173.667 48.2864C171.162 46.277 169.185 45.7399 167.468 46.1078C166.676 46.2775 166.045 46.777 165.56 47.3383C165.068 47.9066 164.647 48.6283 164.285 49.4216C163.559 51.0108 162.988 53.072 162.592 55.2746C162.392 56.3854 162.234 57.5518 162.123 58.7343C161.143 58.6063 160.109 58.3668 159.036 58.1185C158.841 58.0732 158.644 58.0277 158.446 57.9825C157.053 57.6642 155.506 57.3354 154.218 57.468C153.544 57.5374 152.839 57.7404 152.243 58.2185C151.631 58.7092 151.252 59.3945 151.071 60.2074C150.794 61.4611 150.965 63.1367 151.55 65.31C151.458 65.3075 151.361 65.3045 151.26 65.3011C151.047 65.2937 150.816 65.2844 150.571 65.2744C149.819 65.2439 148.929 65.2077 147.987 65.2077C147.626 65.2077 147.252 65.2983 146.916 65.5186C146.583 65.7376 146.358 66.0385 146.218 66.3484C145.954 66.933 145.966 67.5945 146.065 68.1627C146.269 69.3349 146.954 70.7376 148.052 72.0717C149.51 73.8441 151.768 75.5847 154.878 76.6145C154.004 76.7902 153.181 76.9372 152.421 77.073L152.42 77.0731L152.247 77.1039C150.64 77.3907 149.12 77.6621 148.119 78.1441C147.581 78.4029 146.994 78.8117 146.689 79.5008C146.371 80.217 146.48 80.9549 146.737 81.5973C146.799 81.7525 146.892 81.8935 147.01 82.0117C152.406 87.4079 158.545 89.0595 163.949 88.6756C163.391 90.3401 162.825 92.3345 162.504 94.1864C162.281 95.4738 162.162 96.7738 162.286 97.8741C162.403 98.9151 162.789 100.172 163.965 100.76C164.886 101.22 165.983 101.233 166.983 101.097C168.013 100.957 169.12 100.634 170.186 100.239C171.811 99.6375 173.436 98.8333 174.704 98.1254C175.51 99.4329 176.551 101.019 177.578 102.385C178.237 103.261 178.92 104.085 179.553 104.69C179.867 104.99 180.207 105.273 180.557 105.479C180.876 105.666 181.385 105.899 181.974 105.815C182.443 105.748 182.85 105.504 183.135 105.303C183.449 105.08 183.77 104.797 184.084 104.488C184.714 103.87 185.409 103.06 186.092 102.202C187.154 100.867 188.238 99.3513 189.081 98.1147C190.284 98.8193 191.801 99.6218 193.267 100.224C194.226 100.617 195.217 100.948 196.111 101.093C196.933 101.226 198.011 101.26 198.834 100.643C199.391 100.226 199.684 99.5825 199.856 99.0483C200.04 98.4763 200.154 97.8098 200.225 97.1231C200.365 95.7443 200.346 94.1035 200.252 92.5739C200.167 91.2048 200.019 89.8839 199.856 88.8622C205.422 89.4408 211.857 87.8855 217.483 82.2586C217.602 82.1404 217.695 81.9994 217.757 81.8442C218.014 81.2018 218.122 80.4639 217.805 79.7477C217.499 79.0586 216.912 78.6497 216.375 78.3909C215.373 77.909 213.853 77.6376 212.246 77.3508L212.074 77.32C211.029 77.1335 209.867 76.926 208.617 76.652C211.787 75.6272 214.082 73.8658 215.558 72.0717C216.656 70.7376 217.341 69.3349 217.545 68.1627C217.644 67.5945 217.656 66.933 217.392 66.3484C217.252 66.0385 217.027 65.7376 216.694 65.5186C216.358 65.2983 215.984 65.2077 215.623 65.2077C214.681 65.2077 213.791 65.2439 213.039 65.2744C212.794 65.2844 212.563 65.2937 212.35 65.3011C212.249 65.3045 212.152 65.3075 212.06 65.31C212.644 63.1367 212.816 61.4611 212.539 60.2074C212.358 59.3945 211.979 58.7092 211.367 58.2185C210.771 57.7404 210.066 57.5374 209.392 57.468C208.104 57.3354 206.557 57.6642 205.164 57.9825C204.966 58.0277 204.769 58.0732 204.574 58.1184C203.629 58.3372 202.714 58.5491 201.839 58.684C201.796 57.8178 201.728 56.9583 201.635 56.1225C201.398 53.98 200.989 51.923 200.352 50.2799C199.743 48.708 198.797 47.1788 197.267 46.6435C195.75 46.1123 194.14 46.6734 192.767 47.4862C191.348 48.3259 189.886 49.6066 188.505 51.0285C186.26 53.341 184.098 56.1621 182.513 58.4636ZM172.123 50.2123C169.926 48.4502 168.694 48.37 167.985 48.5219C167.912 48.5375 167.718 48.6166 167.427 48.9531C167.142 49.2827 166.836 49.7781 166.531 50.4468C165.922 51.7818 165.397 53.6245 165.022 55.7116C164.268 59.9061 164.168 64.7762 164.974 68.0011C165.498 70.0982 166.354 72.842 168.772 75.1724C170.28 76.6259 172.458 77.977 175.679 78.8709C172.311 72.7469 170.652 66.0091 170.209 63.0521C170.108 62.3779 170.572 61.7493 171.247 61.6482C171.921 61.547 172.549 62.0116 172.65 62.6858C173.111 65.7592 175.021 73.3471 178.946 79.554C180.065 79.7209 181.281 79.841 182.6 79.9059C183.067 79.9288 183.518 79.9396 183.956 79.9389C188.15 74.0493 190.486 66.7873 191.136 63.7982C191.281 63.1321 191.938 62.7095 192.604 62.8544C193.27 62.9993 193.693 63.6568 193.548 64.323C192.914 67.2382 190.828 73.8304 187.083 79.7116C190.178 79.2374 192.38 78.0587 194.027 76.5306C196.41 74.3199 197.78 71.2476 198.873 67.9838C199.45 65.038 199.629 60.4339 199.182 56.3944C198.956 54.3583 198.578 52.5361 198.05 51.1717C197.494 49.7362 196.897 49.1297 196.452 48.9738C195.994 48.8137 195.217 48.9048 194.024 49.6109C192.876 50.29 191.591 51.395 190.277 52.7485C187.656 55.4466 185.114 58.9303 183.578 61.3154C183.354 61.6618 182.973 61.8741 182.561 61.8812C182.149 61.8883 181.761 61.6893 181.526 61.3507C177.351 55.334 174.334 51.9865 172.123 50.2123ZM164.937 94.6073C165.308 92.4615 166.055 90.0472 166.698 88.2986C171.637 87.2907 175.744 84.6403 177.549 81.825C179.04 82.096 180.678 82.2832 182.479 82.3718C184.136 82.4533 185.651 82.3944 187.036 82.2114C188.818 84.8735 192.645 87.3657 197.267 88.4307C197.297 88.5724 197.33 88.7399 197.364 88.9334C197.532 89.887 197.697 91.2675 197.788 92.7263C197.878 94.1902 197.89 95.6818 197.768 96.8723C197.707 97.4701 197.617 97.9475 197.506 98.2906C197.43 98.5268 197.365 98.6333 197.342 98.6689C197.286 98.6859 197.056 98.7445 196.506 98.6554C195.879 98.5538 195.086 98.3012 194.205 97.9396C192.453 97.2202 190.568 96.1603 189.372 95.4031C188.803 95.0425 188.05 95.2052 187.68 95.7687C186.829 97.0652 185.469 99.0198 184.16 100.664C183.503 101.49 182.88 102.21 182.355 102.726C182.091 102.985 181.875 103.17 181.71 103.286C181.596 103.206 181.445 103.083 181.258 102.904C180.769 102.437 180.18 101.737 179.551 100.901C178.301 99.2386 177.006 97.1948 176.197 95.8201C176.029 95.5346 175.753 95.3285 175.432 95.2483C175.111 95.1681 174.77 95.2204 174.488 95.3935C173.261 96.1454 171.273 97.2038 169.328 97.924C168.355 98.2845 167.434 98.5443 166.651 98.6507C165.836 98.7613 165.333 98.6834 165.069 98.5515C165.06 98.5469 164.832 98.4168 164.74 97.5979C164.654 96.8384 164.73 95.8052 164.937 94.6073ZM198.163 86.0428C198.427 86.0471 198.638 86.1278 198.798 86.2233C199.062 86.2696 199.33 86.3108 199.6 86.3464C204.524 86.9945 210.331 85.7865 215.512 80.7353C215.473 80.7065 215.407 80.6655 215.303 80.6154C214.661 80.3059 213.512 80.0848 211.703 79.7617L211.581 79.7399C208.202 79.1368 203.289 78.26 198.104 75.5011C197.424 76.519 196.635 77.4786 195.706 78.3406C194.118 79.8133 192.165 80.9628 189.732 81.6586C191.343 83.4516 194.297 85.2424 197.954 86.0557C198.02 86.0463 198.09 86.0416 198.163 86.0428ZM160.605 75.0883C161.839 74.6584 163.114 74.1373 164.411 73.4948C163.415 71.6971 162.916 69.9486 162.579 68.5999C162.052 66.4935 161.874 63.8766 161.965 61.2025C160.785 61.0595 159.563 60.7757 158.459 60.5194C158.268 60.4749 158.08 60.4313 157.896 60.3894C156.419 60.0519 155.281 59.8405 154.471 59.924C154.096 59.9626 153.897 60.0567 153.788 60.1446C153.694 60.2201 153.564 60.37 153.482 60.7413C153.296 61.5805 153.429 63.188 154.348 66.0669C154.553 66.7105 154.203 67.3996 153.562 67.6133C153.2 67.734 152.787 67.7677 152.436 67.78C152.06 67.7932 151.628 67.7841 151.175 67.7685C150.937 67.7603 150.689 67.7503 150.433 67.7399L150.433 67.7399C149.832 67.7155 149.183 67.6892 148.488 67.68C148.49 67.6986 148.494 67.718 148.497 67.7384C148.609 68.3793 149.05 69.3992 149.959 70.5031C151.739 72.6674 155.168 74.9679 160.605 75.0836L160.605 75.0883ZM213.651 70.5031C211.89 72.6443 208.515 74.9189 203.179 75.0792C201.932 74.6143 200.648 74.053 199.346 73.3652C200.123 71.8336 200.724 70.238 201.24 68.6909C201.256 68.6423 201.269 68.5928 201.28 68.5426C201.679 66.5449 201.902 63.9057 201.902 61.1693C203.002 61.0185 204.127 60.7571 205.151 60.5194C205.342 60.4749 205.53 60.4313 205.714 60.3894C207.191 60.0519 208.329 59.8405 209.139 59.924C209.514 59.9626 209.713 60.0567 209.822 60.1446C209.916 60.2201 210.046 60.37 210.128 60.7413C210.314 61.5805 210.181 63.188 209.262 66.0669C209.057 66.7105 209.407 67.3996 210.048 67.6133C210.41 67.734 210.823 67.7677 211.174 67.78C211.55 67.7932 211.982 67.7841 212.435 67.7685C212.673 67.7603 212.921 67.7503 213.177 67.7399C213.778 67.7155 214.427 67.6892 215.122 67.68C215.12 67.6986 215.116 67.718 215.113 67.7384C215.001 68.3793 214.56 69.3992 213.651 70.5031ZM174.926 81.2237C171.415 80.2354 168.89 78.7154 167.058 76.9499C166.59 76.4979 166.17 76.0335 165.794 75.5633C160.83 78.08 156.162 78.9131 152.913 79.493L152.791 79.5148C150.982 79.8379 149.833 80.0591 149.19 80.3685C149.086 80.4186 149.021 80.4596 148.981 80.4884C154.163 85.5396 159.97 86.7476 164.893 86.0995C169.44 85.501 173.135 83.3401 174.926 81.2237ZM215.53 80.6829C215.53 80.6829 215.531 80.6858 215.531 80.6924C215.53 80.6901 215.53 80.6881 215.53 80.6866C215.53 80.6843 215.53 80.6829 215.53 80.6829ZM148.963 80.436C148.963 80.436 148.963 80.4389 148.963 80.4455C148.964 80.4395 148.963 80.436 148.963 80.436ZM181.882 103.388C181.882 103.388 181.878 103.387 181.869 103.383C181.878 103.386 181.882 103.388 181.882 103.388Z" fill="white"/>
<g filter="url(#filter3_f_2002_50)">
<path d="M181.552 74.4728C182.507 74.4728 183.28 73.699 183.28 72.7446C183.28 71.7901 182.507 71.0163 181.552 71.0163C180.598 71.0163 179.824 71.7901 179.824 72.7446C179.824 73.699 180.598 74.4728 181.552 74.4728Z" fill="white"/>
<path fill-rule="evenodd" clip-rule="evenodd" d="M182.513 58.4636C178.806 53.2724 175.948 50.1161 173.667 48.2864C171.162 46.277 169.185 45.7399 167.468 46.1078C166.676 46.2775 166.045 46.777 165.56 47.3383C165.068 47.9066 164.647 48.6283 164.285 49.4216C163.559 51.0108 162.988 53.072 162.592 55.2746C162.392 56.3854 162.234 57.5518 162.123 58.7343C161.143 58.6063 160.109 58.3668 159.036 58.1185C158.841 58.0732 158.644 58.0277 158.446 57.9825C157.053 57.6642 155.506 57.3354 154.218 57.468C153.544 57.5374 152.839 57.7404 152.243 58.2185C151.631 58.7092 151.252 59.3945 151.071 60.2074C150.794 61.4611 150.965 63.1367 151.55 65.31C151.458 65.3075 151.361 65.3045 151.26 65.3011C151.047 65.2937 150.816 65.2844 150.571 65.2744C149.819 65.2439 148.929 65.2077 147.987 65.2077C147.626 65.2077 147.252 65.2983 146.916 65.5186C146.583 65.7376 146.358 66.0385 146.218 66.3484C145.954 66.933 145.966 67.5945 146.065 68.1627C146.269 69.3349 146.954 70.7376 148.052 72.0717C149.51 73.8441 151.768 75.5847 154.878 76.6145C154.004 76.7902 153.181 76.9372 152.421 77.073L152.42 77.0731L152.247 77.1039C150.64 77.3907 149.12 77.6621 148.119 78.1441C147.581 78.4029 146.994 78.8117 146.689 79.5008C146.371 80.217 146.48 80.9549 146.737 81.5973C146.799 81.7525 146.892 81.8935 147.01 82.0117C152.406 87.4079 158.545 89.0595 163.949 88.6756C163.391 90.3401 162.825 92.3345 162.504 94.1864C162.281 95.4738 162.162 96.7738 162.286 97.8741C162.403 98.9151 162.789 100.172 163.965 100.76C164.886 101.22 165.983 101.233 166.983 101.097C168.013 100.957 169.12 100.634 170.186 100.239C171.811 99.6375 173.436 98.8333 174.704 98.1254C175.51 99.4329 176.551 101.019 177.578 102.385C178.237 103.261 178.92 104.085 179.553 104.69C179.867 104.99 180.207 105.273 180.557 105.479C180.876 105.666 181.385 105.899 181.974 105.815C182.443 105.748 182.85 105.504 183.135 105.303C183.449 105.08 183.77 104.797 184.084 104.488C184.714 103.87 185.409 103.06 186.092 102.202C187.154 100.867 188.238 99.3513 189.081 98.1147C190.284 98.8193 191.801 99.6218 193.267 100.224C194.226 100.617 195.217 100.948 196.111 101.093C196.933 101.226 198.011 101.26 198.834 100.643C199.391 100.226 199.684 99.5825 199.856 99.0483C200.04 98.4763 200.154 97.8098 200.225 97.1231C200.365 95.7443 200.346 94.1035 200.252 92.5739C200.167 91.2048 200.019 89.8839 199.856 88.8622C205.422 89.4408 211.857 87.8855 217.483 82.2586C217.602 82.1404 217.695 81.9994 217.757 81.8442C218.014 81.2018 218.122 80.4639 217.805 79.7477C217.499 79.0586 216.912 78.6497 216.375 78.3909C215.373 77.909 213.853 77.6376 212.246 77.3508L212.074 77.32C211.029 77.1335 209.867 76.926 208.617 76.652C211.787 75.6272 214.082 73.8658 215.558 72.0717C216.656 70.7376 217.341 69.3349 217.545 68.1627C217.644 67.5945 217.656 66.933 217.392 66.3484C217.252 66.0385 217.027 65.7376 216.694 65.5186C216.358 65.2983 215.984 65.2077 215.623 65.2077C214.681 65.2077 213.791 65.2439 213.039 65.2744C212.794 65.2844 212.563 65.2937 212.35 65.3011C212.249 65.3045 212.152 65.3075 212.06 65.31C212.644 63.1367 212.816 61.4611 212.539 60.2074C212.358 59.3945 211.979 58.7092 211.367 58.2185C210.771 57.7404 210.066 57.5374 209.392 57.468C208.104 57.3354 206.557 57.6642 205.164 57.9825C204.966 58.0277 204.769 58.0732 204.574 58.1184C203.629 58.3372 202.714 58.5491 201.839 58.684C201.796 57.8178 201.728 56.9583 201.635 56.1225C201.398 53.98 200.989 51.923 200.352 50.2799C199.743 48.708 198.797 47.1788 197.267 46.6435C195.75 46.1123 194.14 46.6734 192.767 47.4862C191.348 48.3259 189.886 49.6066 188.505 51.0285C186.26 53.341 184.098 56.1621 182.513 58.4636ZM172.123 50.2123C169.926 48.4502 168.694 48.37 167.985 48.5219C167.912 48.5375 167.718 48.6166 167.427 48.9531C167.142 49.2827 166.836 49.7781 166.531 50.4468C165.922 51.7818 165.397 53.6245 165.022 55.7116C164.268 59.9061 164.168 64.7762 164.974 68.0011C165.498 70.0982 166.354 72.842 168.772 75.1724C170.28 76.6259 172.458 77.977 175.679 78.8709C172.311 72.7469 170.652 66.0091 170.209 63.0521C170.108 62.3779 170.572 61.7493 171.247 61.6482C171.921 61.547 172.549 62.0116 172.65 62.6858C173.111 65.7592 175.021 73.3471 178.946 79.554C180.065 79.7209 181.281 79.841 182.6 79.9059C183.067 79.9288 183.518 79.9396 183.956 79.9389C188.15 74.0493 190.486 66.7873 191.136 63.7982C191.281 63.1321 191.938 62.7095 192.604 62.8544C193.27 62.9993 193.693 63.6568 193.548 64.323C192.914 67.2382 190.828 73.8304 187.083 79.7116C190.178 79.2374 192.38 78.0587 194.027 76.5306C196.41 74.3199 197.78 71.2476 198.873 67.9838C199.45 65.038 199.629 60.4339 199.182 56.3944C198.956 54.3583 198.578 52.5361 198.05 51.1717C197.494 49.7362 196.897 49.1297 196.452 48.9738C195.994 48.8137 195.217 48.9048 194.024 49.6109C192.876 50.29 191.591 51.395 190.277 52.7485C187.656 55.4466 185.114 58.9303 183.578 61.3154C183.354 61.6618 182.973 61.8741 182.561 61.8812C182.149 61.8883 181.761 61.6893 181.526 61.3507C177.351 55.334 174.334 51.9865 172.123 50.2123ZM164.937 94.6073C165.308 92.4615 166.055 90.0472 166.698 88.2986C171.637 87.2907 175.744 84.6403 177.549 81.825C179.04 82.096 180.678 82.2832 182.479 82.3718C184.136 82.4533 185.651 82.3944 187.036 82.2114C188.818 84.8735 192.645 87.3657 197.267 88.4307C197.297 88.5724 197.33 88.7399 197.364 88.9334C197.532 89.887 197.697 91.2675 197.788 92.7263C197.878 94.1902 197.89 95.6818 197.768 96.8723C197.707 97.4701 197.617 97.9475 197.506 98.2906C197.43 98.5268 197.365 98.6333 197.342 98.6689C197.286 98.6859 197.056 98.7445 196.506 98.6554C195.879 98.5538 195.086 98.3012 194.205 97.9396C192.453 97.2202 190.568 96.1603 189.372 95.4031C188.803 95.0425 188.05 95.2052 187.68 95.7687C186.829 97.0652 185.469 99.0198 184.16 100.664C183.503 101.49 182.88 102.21 182.355 102.726C182.091 102.985 181.875 103.17 181.71 103.286C181.596 103.206 181.445 103.083 181.258 102.904C180.769 102.437 180.18 101.737 179.551 100.901C178.301 99.2386 177.006 97.1948 176.197 95.8201C176.029 95.5346 175.753 95.3285 175.432 95.2483C175.111 95.1681 174.77 95.2204 174.488 95.3935C173.261 96.1454 171.273 97.2038 169.328 97.924C168.355 98.2845 167.434 98.5443 166.651 98.6507C165.836 98.7613 165.333 98.6834 165.069 98.5515C165.06 98.5469 164.832 98.4168 164.74 97.5979C164.654 96.8384 164.73 95.8052 164.937 94.6073ZM198.163 86.0428C198.427 86.0471 198.638 86.1278 198.798 86.2233C199.062 86.2696 199.33 86.3108 199.6 86.3464C204.524 86.9945 210.331 85.7865 215.512 80.7353C215.473 80.7065 215.407 80.6655 215.303 80.6154C214.661 80.3059 213.512 80.0848 211.703 79.7617L211.581 79.7399C208.202 79.1368 203.289 78.26 198.104 75.5011C197.424 76.519 196.635 77.4786 195.706 78.3406C194.118 79.8133 192.165 80.9628 189.732 81.6586C191.343 83.4516 194.297 85.2424 197.954 86.0557C198.02 86.0463 198.09 86.0416 198.163 86.0428ZM160.605 75.0883C161.839 74.6584 163.114 74.1373 164.411 73.4948C163.415 71.6971 162.916 69.9486 162.579 68.5999C162.052 66.4935 161.874 63.8766 161.965 61.2025C160.785 61.0595 159.563 60.7757 158.459 60.5194C158.268 60.4749 158.08 60.4313 157.896 60.3894C156.419 60.0519 155.281 59.8405 154.471 59.924C154.096 59.9626 153.897 60.0567 153.788 60.1446C153.694 60.2201 153.564 60.37 153.482 60.7413C153.296 61.5805 153.429 63.188 154.348 66.0669C154.553 66.7105 154.203 67.3996 153.562 67.6133C153.2 67.734 152.787 67.7677 152.436 67.78C152.06 67.7932 151.628 67.7841 151.175 67.7685C150.937 67.7603 150.689 67.7503 150.433 67.7399L150.433 67.7399C149.832 67.7155 149.183 67.6892 148.488 67.68C148.49 67.6986 148.494 67.718 148.497 67.7384C148.609 68.3793 149.05 69.3992 149.959 70.5031C151.739 72.6674 155.168 74.9679 160.605 75.0836L160.605 75.0883ZM213.651 70.5031C211.89 72.6443 208.515 74.9189 203.179 75.0792C201.932 74.6143 200.648 74.053 199.346 73.3652C200.123 71.8336 200.724 70.238 201.24 68.6909C201.256 68.6423 201.269 68.5928 201.28 68.5426C201.679 66.5449 201.902 63.9057 201.902 61.1693C203.002 61.0185 204.127 60.7571 205.151 60.5194C205.342 60.4749 205.53 60.4313 205.714 60.3894C207.191 60.0519 208.329 59.8405 209.139 59.924C209.514 59.9626 209.713 60.0567 209.822 60.1446C209.916 60.2201 210.046 60.37 210.128 60.7413C210.314 61.5805 210.181 63.188 209.262 66.0669C209.057 66.7105 209.407 67.3996 210.048 67.6133C210.41 67.734 210.823 67.7677 211.174 67.78C211.55 67.7932 211.982 67.7841 212.435 67.7685C212.673 67.7603 212.921 67.7503 213.177 67.7399C213.778 67.7155 214.427 67.6892 215.122 67.68C215.12 67.6986 215.116 67.718 215.113 67.7384C215.001 68.3793 214.56 69.3992 213.651 70.5031ZM174.926 81.2237C171.415 80.2354 168.89 78.7154 167.058 76.9499C166.59 76.4979 166.17 76.0335 165.794 75.5633C160.83 78.08 156.162 78.9131 152.913 79.493L152.791 79.5148C150.982 79.8379 149.833 80.0591 149.19 80.3685C149.086 80.4186 149.021 80.4596 148.981 80.4884C154.163 85.5396 159.97 86.7476 164.893 86.0995C169.44 85.501 173.135 83.3401 174.926 81.2237ZM215.53 80.6829C215.531 80.6828 215.531 80.6858 215.531 80.6924C215.53 80.6901 215.53 80.6881 215.53 80.6866C215.53 80.6843 215.53 80.683 215.53 80.6829ZM148.963 80.436C148.963 80.4359 148.963 80.4389 148.963 80.4455C148.964 80.4395 148.963 80.4362 148.963 80.436ZM181.882 103.388C181.882 103.388 181.878 103.387 181.869 103.383C181.878 103.386 181.882 103.388 181.882 103.388Z" fill="white"/>
</g>
<defs>
<filter id="filter0_f_2002_50" x="10" y="9.99998" width="343.584" height="86.0207" filterUnits="userSpaceOnUse" color-interpolation-filters="sRGB">
<feFlood flood-opacity="0" result="BackgroundImageFix"/>
<feBlend mode="normal" in="SourceGraphic" in2="BackgroundImageFix" result="shape"/>
<feGaussianBlur stdDeviation="10" result="effect1_foregroundBlur_2002_50"/>
</filter>
<filter id="filter1_f_2002_50" x="0" y="-1.52588e-05" width="363.584" height="106.021" filterUnits="userSpaceOnUse" color-interpolation-filters="sRGB">
<feFlood flood-opacity="0" result="BackgroundImageFix"/>
<feBlend mode="normal" in="SourceGraphic" in2="BackgroundImageFix" result="shape"/>
<feGaussianBlur stdDeviation="15" result="effect1_foregroundBlur_2002_50"/>
</filter>
<filter id="filter2_f_2002_50" x="15" y="15" width="333.584" height="76.0207" filterUnits="userSpaceOnUse" color-interpolation-filters="sRGB">
<feFlood flood-opacity="0" result="BackgroundImageFix"/>
<feBlend mode="normal" in="SourceGraphic" in2="BackgroundImageFix" result="shape"/>
<feGaussianBlur stdDeviation="7.5" result="effect1_foregroundBlur_2002_50"/>
</filter>
<filter id="filter3_f_2002_50" x="142" y="42" width="80" height="67.8331" filterUnits="userSpaceOnUse" color-interpolation-filters="sRGB">
<feFlood flood-opacity="0" result="BackgroundImageFix"/>
<feBlend mode="normal" in="SourceGraphic" in2="BackgroundImageFix" result="shape"/>
<feGaussianBlur stdDeviation="2" result="effect1_foregroundBlur_2002_50"/>
</filter>
</defs>
</svg>
